<?xml version="1.0" encoding="utf-8"?>
<!-- Generator: Adobe Illustrator 21.1.0, SVG Export Plug-In . SVG Version: 6.00 Build 0)  -->
<svg version="1.1" id="Layer_1" xmlns="http://www.w3.org/2000/svg" xmlns:xlink="http://www.w3.org/1999/xlink" x="0px" y="0px"
	 viewBox="0 0 612 792" style="enable-background:new 0 0 612 792;" xml:space="preserve">
<style type="text/css">
	.st0{fill:#FCFCFC;}
	.st1{fill:#FE0000;}
	.st2{fill:#010000;}
	.st3{fill:#FEFEFE;}
	.st4{fill:#220000;}
	.st5{fill:#666666;}
	.st6{fill:#414141;}
	.st7{fill:#474747;}
	.st8{fill:#494949;}
	.st9{fill:#484848;}
	.st10{fill:#5B5B5B;}
	.st11{fill:#4A4A4A;}
	.st12{fill:#424242;}
	.st13{fill:#2F0505;}
	.st14{fill:#646464;}
	.st15{fill:#454545;}
	.st16{fill:#5C5C5C;}
	.st17{fill:#535353;}
	.st18{fill:#616161;}
	.st19{fill:#606060;}
	.st20{fill:#525252;}
	.st21{fill:#444444;}
	.st22{fill:#3E3E3E;}
	.st23{fill:#404040;}
	.st24{fill:#464646;}
	.st25{fill:#282828;}
	.st26{fill:#2C2C2C;}
	.st27{fill:#1B1B1B;}
	.st28{fill:#505050;}
	.st29{fill:#1A1A1A;}
	.st30{fill:#191919;}
	.st31{fill:#4B4B4B;}
	.st32{fill:#1E1E1E;}
	.st33{fill:#0D0D0D;}
	.st34{fill:#4D4D4D;}
	.st35{fill:#1D1D1D;}
	.st36{fill:#4C4C4C;}
	.st37{fill:#0F0F0F;}
	.st38{fill:#292929;}
	.st39{fill:#1F1F1F;}
	.st40{fill:#5F5F5F;}
	.st41{fill:#1C1C1C;}
	.st42{fill:#737373;}
	.st43{fill:#2F2F2F;}
	.st44{fill:#434343;}
	.st45{fill:#656565;}
	.st46{fill:#363636;}
	.st47{fill:#343434;}
	.st48{fill:#2D2D2D;}
	.st49{fill:#333333;}
	.st50{fill:#300404;}
	.st51{fill:#5A0606;}
	.st52{fill:#590606;}
	.st53{fill:#590707;}
	.st54{fill:#580808;}
	.st55{fill:#653131;}
	.st56{fill:#570909;}
	.st57{fill:#653232;}
	.st58{fill:#643434;}
	.st59{fill:#6A3D3D;}
	.st60{fill:#2C0808;}
	.st61{fill:#511B1B;}
	.st62{fill:#2E0606;}
	.st63{fill:#6B3D3D;}
	.st64{fill:#3C1E1E;}
	.st65{fill:#511C1C;}
	.st66{fill:#511D1D;}
	.st67{fill:#542121;}
	.st68{fill:#552222;}
	.st69{fill:#552424;}
	.st70{fill:#5E2727;}
	.st71{fill:#3D2020;}
	.st72{fill:#573131;}
	.st73{fill:#562525;}
	.st74{fill:#562626;}
	.st75{fill:#532E2E;}
	.st76{fill:#542E2E;}
	.st77{fill:#552F2F;}
	.st78{fill:#563030;}
	.st79{fill:#5B3434;}
	.st80{fill:#593434;}
	.st81{fill:#583333;}
	.st82{fill:#573232;}
	.st83{fill:#2D1919;}
	.st84{fill:#564747;}
	.st85{fill:#583E3E;}
	.st86{fill:#4B1D1D;}
	.st87{fill:#522B2B;}
	.st88{fill:#522A2A;}
	.st89{fill:#512929;}
	.st90{fill:#300505;}
	.st91{fill:#2B0808;}
	.st92{fill:#3A3A3A;}
	.st93{fill:#2E2E2E;}
	.st94{fill:#3B3B3B;}
	.st95{fill:#690C0C;}
	.st96{fill:#6B0B0B;}
	.st97{fill:#6A0C0C;}
	.st98{fill:#FEEB00;}
	.st99{fill:#FEE400;}
	.st100{fill:#FEE100;}
	.st101{fill:#FEFE00;}
	.st102{fill:#FEFD00;}
	.st103{fill:#FEF800;}
	.st104{fill:#FEE500;}
</style>
<g>
	<path class="st0" d="M699.7,5962.6c-2502,0-5004.1-0.1-7506.1,0.9c-34.9,0-40.7-9.1-40.7-41.9c0.9-1320.6,0.9-2641.3-0.1-3961.9
		c0-33.8,7.8-41.2,41.3-41.2c5004.1,0.9,10008.1,0.9,15012.2-0.2c37.5,0,43.1,8.9,43.1,44.3c-1.1,1320.6-1.1,2641.3,0,3961.9
		c0,32.5-6.8,39-39.1,39C5706.8,5962.6,3203.3,5962.6,699.7,5962.6z"/>
	<path class="st1" d="M3739.3,1993.5c248.4,70.8,496.7,142.2,745.4,212.4c262.9,74.2,526.3,146.7,789.3,220.7
		c467.8,131.7,935.5,263.8,1403.1,396c414.8,117.3,829.5,235.1,1244.2,352.9c20.6,5.8,47.2-0.7,58.3,26.4
		c-11.2,15.6-28.1,15.2-44.6,15.6c-18,0.4-35.9,0.2-53.9,0.2c-2431.5,0-4863-0.5-7294.5,0.4c-495.6,0.2-991.1,1.7-1486.7,0.5
		c-495.6-1.1-991.1,0-1486.7-1.1c-25.8-0.1-51.1-0.9-69,22.3c-6.6,4.1-13.7,6.7-21.5,6.8c-22.2-3.8-39.1-25.3-64.4-19.3
		c-4-0.1-7.9-0.9-11.6-2.3c-15.8-11.5-32.9-19.1-53.2-15.8c-4-0.3-7.8-1.3-11.4-3c-14.8-10.5-30.7-17.6-49.5-14.8
		c-4.1-0.1-8-0.9-11.7-2.5c-12.7-10.5-27.8-13.9-43.9-14.2c-4-0.7-7.8-2-11.4-3.9c-14.8-12.1-32.8-12.7-50.6-13.8
		c-3.9-0.6-7.7-1.8-11.2-3.6c-15.4-13.1-33-17.4-52.7-13.2c-5.9,0.1-11.6-1-16.9-3.5c-13.4-11.6-28.8-17.2-46.7-14.4
		c-6.1-0.1-11.8-1.4-17.3-4.1c-12.6-11-27.4-15.4-43.9-14.9c-4-0.4-7.8-1.4-11.6-2.8c-13.4-8.6-28.3-12.1-44.1-12.3
		c-6-0.6-11.8-2.1-17.3-4.3c-13.6-8.7-28.5-13.3-44.7-13.4c-6.1-0.6-12-2-17.6-4.3c-13.8-8.6-28.6-13.6-45-13.6
		c-6.1-0.6-12-2-17.6-4.3c-13.7-8.4-28.3-13.8-44.7-13.7c-6-0.6-11.9-2-17.5-4.2c-12.2-6.5-24-13.7-37.6-17.3
		c-17.4-5.6-35-9.7-53.4-10.1c-4-0.4-7.8-1.5-11.5-3.1c-13.1-10.1-28.8-9.3-44.1-10.6c-6-0.8-11.7-2.5-17.1-5.2
		c-13-11-28.9-11.4-44.7-12.4c-6.1-0.7-12-2.5-17.5-5.2c-13.1-11-29.1-11.9-45.2-12.8c-6.2-0.7-12-2.5-17.6-5.2
		c-13.1-11-29.1-12-45.2-12.8c-6.1-0.7-12-2.4-17.5-5.1c-13-10.8-28.6-12.3-44.6-12.8c-6-0.7-11.7-2.3-17.1-4.9
		c-10.7-8.2-22.8-13.6-36-16.5c-17.9-5.9-35.3-13.9-55-10.8c-4-0.2-7.8-1.2-11.5-2.8c-13.1-9.5-27-16.1-43.8-13.4
		c-6.2,0.3-12.1-0.6-17.7-3.3c-13.3-10.3-27.5-17.5-45-14.7c-6,0.3-11.7-0.5-17.2-3c-13.4-11-28.4-17.6-46.3-16.6
		c-3.9-0.5-7.6-1.7-11.2-3.5c-15.2-10.6-32.5-13.5-50.4-14.1c-4.1-0.5-7.9-1.7-11.6-3.4c-15.3-10.8-32.8-14-51.1-14.6
		c-4.1-0.5-8-1.6-11.7-3.3c-15.2-10.7-32.5-14.1-50.7-14.6c-3.9-0.4-7.7-1.4-11.4-3c-16.2-11-34-16.1-53.7-13.8
		c-5.9,0.3-11.5-0.6-16.9-3.1c-13.6-10.5-28.1-18.2-46.2-14.9c-5.8,0.3-11.5-0.6-16.8-3.1c-13.6-10.5-28.1-18.2-46.1-14.9
		c-5.8,0.3-11.4-0.6-16.8-3.1c-13.6-10.5-28.1-18.2-46.1-14.9c-5.8,0.3-11.4-0.6-16.8-3.1c-13.6-10.5-28.1-18.2-46.1-14.9
		c-5.8,0.3-11.4-0.6-16.8-3.1c-13.6-10.5-28.1-18.2-46.1-14.9c-5.8,0.3-11.4-0.6-16.8-3.1c-13.6-10.5-28.1-18.2-46.1-14.9
		c-5.8,0.3-11.4-0.6-16.8-3.1c-13.6-10.5-28.1-18.2-46.1-14.9c-5.8,0.3-11.4-0.6-16.8-3.1c-13.6-10.5-28.1-18.2-46.1-14.9
		c-5.8,0.3-11.4-0.6-16.8-3.1c-13.6-10.5-28.1-18.2-46.1-14.9c-5.8,0.3-11.4-0.6-16.8-3.1c-13.6-10.5-28.1-18.2-46.1-14.9
		c-5.8,0.3-11.4-0.6-16.8-3.1c-13.6-10.6-28.1-18.2-46.2-14.9c-5.8,0.3-11.5-0.7-16.8-3.1c-13.6-10.6-28.2-18.1-46.3-14.8
		c-5.9,0.2-11.5-0.7-16.9-3.3c-15.4-11.9-32.2-19.6-52.4-16.4c-4.1-0.1-7.9-1.1-11.6-2.7c-15.4-11.2-32-18.3-51.5-15.3
		c-4-0.1-7.9-1.1-11.5-2.7c-15.9-11.8-33.3-18.6-53.5-15.2c-12.1-0.6-23.6-3.7-34.2-9.4c-15.5-13.1-34.2-16.6-53.8-17.1
		c-4.1-0.5-7.9-1.6-11.6-3.3c-15.4-11-33.1-14.3-51.5-14.8c-4.1-0.5-7.9-1.6-11.6-3.3c-15.1-10.6-32.2-14.2-50.3-14.2
		c-4.1-0.2-8.1-1-12-2.3c-16.2-8.5-32.3-17-51.5-15.8c-4.2-0.2-8.2-1.1-12.1-2.5c-16.2-8.7-32.6-16.6-51.7-15.9
		c-4.1-0.5-7.9-1.7-11.6-3.5c-15.3-10.7-32.7-13.7-50.8-14.3c-4.1-0.5-7.9-1.6-11.6-3.3c-15.2-10.7-32.5-14-50.5-14.5
		c-4-0.4-7.8-1.4-11.4-3c-14.5-10.5-31.7-13.9-48.7-17.9c-12-2.4-23.7-5.9-35.4-9.4c-19.6-7.2-40.3-10.6-60-17.1
		c-13.5-4.4-26.8-9.3-40.4-13.5c-18.5-6.4-37.3-10.9-57-11.2c-4-0.5-7.8-1.7-11.4-3.4c-15.2-10.7-32.7-13.7-50.8-14.4
		c-4.1-0.5-8-1.6-11.7-3.3c-15.3-10.8-32.9-14-51.2-14.6c-4.1-0.5-8-1.6-11.7-3.3c-15.3-10.8-32.9-14.1-51.2-14.6
		c-4.1-0.5-8-1.6-11.7-3.3c-15.2-10.7-32.6-14.1-50.7-14.6c-4-0.4-7.8-1.5-11.4-3c-16.5-11.3-34.7-15.8-54.6-13.9
		c-10.6,0.3-19.7-3.7-28.5-8.9c-16.8-12.6-37.5-12.9-56.8-17.9c-14.9-5.9-29.3-12.9-44.8-17.3c-7.5-2.5-15.1-4.7-22.9-6.3
		c-13.6-3.1-26.9-7.5-40.2-11.7c-7.5-2.5-15.2-4.6-23-6.3c-13.9-3.1-27.3-7.7-40.9-11.8c-7.9-2.5-15.9-4.6-24-6.2
		c-20.6-5.7-41.6-9.8-62-16.2c-20.4-7.5-41.8-11.2-62.4-17.8c-20.4-7.5-41.8-11.3-62.4-17.9c-20.5-7.7-42.3-11.1-62.9-18.5
		c-6.4-2.9-12.2-7-18.9-9.3c-20.1-7.7-45.4-4.8-57.6-28.3c18.4-9.8,38.1-4.8,57.1-4.8c3463-0.3,6925.9-0.2,10388.9-0.4
		C3700.6,1995.8,3720.1,1998.2,3739.3,1993.5z"/>
	<path class="st0" d="M-4813.3,2573.5c5,0.6,10,1.2,15,1.8c17.3,1.4,34.2,4.3,48,16.2c5,0.6,10,1.3,14.9,1.9
		c17.3,1.4,34.1,4.1,47.8,16.1c5,0.6,10.1,1.2,15.1,1.8c17.3,1.4,34.1,4.3,47.9,16.1c5,0.6,10,1.2,15,1.8c17.3,1.4,34.1,4.4,48,16.1
		c5,0.6,10,1.2,15,1.8c17.4,1.4,34.1,4.6,48.1,16.1c4.9,0.6,9.8,1.2,14.7,1.8c17.4,1.4,34.2,4.7,48.2,16.2c4.9,0.6,9.8,1.2,14.7,1.8
		c17.5,1.4,34.2,4.9,48.4,16.2c4.8,0.6,9.7,1.2,14.5,1.7c17.5,1.4,34.3,5,48.4,16.2c4.8,0.6,9.6,1.2,14.5,1.7
		c17.6,1.4,34.4,5.1,48.7,16.3c4.8,0.6,9.5,1.1,14.3,1.7c17.6,1.4,34.3,5.2,48.7,16.3c4.7,0.5,9.3,1.1,14,1.6
		c18,3.4,37.2,3.1,52,16.6c3.6,0.4,7.3,0.8,10.9,1.3c18,3.5,37.3,3.2,52.2,16.7c3.6,0.4,7.1,0.8,10.7,1.3
		c18.1,3.5,37.4,3.3,52.3,16.7c3.6,0.3,7.2,0.7,10.7,1c18.5,1.8,36.7,4.7,51.8,16.8c3.8,0.4,7.6,0.8,11.4,1.2
		c18.2-0.9,33.3,7.2,47.9,16.5c5,0.5,9.9,1,14.9,1.4c18.3-1.3,33.1,7.3,47.8,16.5c5,0.5,10,0.9,15,1.4c18.3-1.3,33.2,7.4,47.9,16.6
		l3.8,0.5c16.8-8.1,29.9,8.2,45.6,7.1c14.4,11.4,34.8,8,49.2,19.4c4.9,0.9,9.7,1.8,14.6,2.6c14.8,8.1,35.2-1.1,47.4,15.1
		c5.1,0.9,10.3,1.8,15.4,2.7c14.5,8.6,35.2-1.6,47,15.3c5.3,0.9,10.5,1.8,15.8,2.7c14.4,8.8,35.2-1.9,46.8,15.3
		c5.3,0.8,10.6,1.7,16,2.5c14.4,9,35.3-1.7,47,15.4c5.3,0.8,10.6,1.7,15.9,2.5c14.4,9,35.3-1.6,47.1,15.5c2.6,1.5,5.2,1.8,8.1,0.8
		c15,0.3,28.8,8.1,44,7.3c14,10.5,32.8,9.4,47.1,19.1c4.5,1,9.1,2,13.6,3c16.7,3.8,34,5.5,48.9,15c4.7,1,9.3,1.9,14,2.9
		c16.6,4,34,5.3,48.7,15.2c4.7,0.8,9.4,1.7,14.1,2.5c16.4,4.6,34.1,5.5,48.8,15.4c4.7,0.8,9.4,1.7,14.1,2.5
		c16.5,4.6,34.1,5.6,49,15.4c3.7,0.7,7.3,1.4,11,2.1c15.8,3.7,32.8,3.8,45.6,16c5.8,0.6,11.5,1.3,17.3,1.9
		c15.7,3.8,32.8,3.7,45.5,16c5.5,0.5,10.9,0.9,16.4,1.4c17.7,3,36.3,3,50.4,16.7c4.2,0.4,8.3,0.8,12.5,1.2
		c16.6,6.3,36.6,2.3,50.5,16.8c4,0.4,8.1,0.7,12.1,1.1c15.9,4.9,33.8,4,46.9,16.7l2.4,0.4c22.1-1.8,41.6,5,59.5,17.5l3.5,0.5
		c21.8-1.4,41.6,4.3,59.1,17.5c1.3,1.1,2.7,1.3,4.3,0.4c21.4-1,41.2,3.8,58.2,17.4c4.8,0,9.6,0,14.4,0c24-1.8,28.8,17.4,36.2,33.3
		c31.1,67.5,41.7,140.1,49.5,212.8c19.9,185.7,24.2,372.1,30.8,558.6c4.8,136.1,7.7,272.1,4.2,407.8c-3.5,137.4-3.2,274.9-9,412.1
		c-5.2,122.2-8.3,244.6-17.5,366.5c-13.2,173.7-14.6,349-55.6,519.7c-4.3,17.8,3.1,47.8-29.8,51.2c-1.6,0.2-3.1,0.4-4.7,0.4
		c-10.1-0.4-20.4,0.6-30.1-3.4c-8.8-5.8-19.7-6.2-28.8-11.2c-20.1-6.7-41.6-9.5-59.9-21.3c-13.2,1.4-25-3-36.3-9
		c-23.6-6-47-12.5-69.6-21.6c-11.8-2.9-23.3-6.9-34.9-10.2c-7.5-2.6-14.9-5.4-22-8.9c-10-6.1-23.8-2.4-32.4-12.2
		c-4.1-0.3-8.1-0.5-12.2-0.8c-10.7,4.2-18.2-5.6-27.7-6.4c-14.8-5.6-29.9-10.5-44.7-16.2c-9.7-3.1-19.9-4.5-29.6-7.5
		c-24.7-11-50.5-19-76.9-24.8c-14.1-4-27.8-9-42-12.9c-7.7-3.1-16-4.4-24-6.8c-21.4-13.2-45.8-12.5-69.5-15.5l0.9,0.6
		c-14-15.4-34.2-17-52.2-23.5c-7.3-3.1-15.2-4.1-22.8-6.5c-10.1-6.5-23.6-5.6-32.3-15.1c-11.7,0-23.5,0.1-35.2,0.1
		c-14.6-13.7-33.8-17.6-51.9-23.8c-14.6-5.4-30.1-7.5-44.7-12.8c-1.1-1.3-2.2-2.7-3.3-4c-10.6-13.6-30.5-0.4-41-14.2l-0.8,0.4
		c-18.5-0.8-34.4-10.9-52.3-14c-15.2-5.3-31.2-7.8-46.4-13.2c-19.7-14.1-44.9-7.3-65.7-17.5c-10.2-7.3-21.8-11.6-33.8-14.8
		c-13.6-5.6-28.8-6.2-42-13c-12.4-2.7-24.7-5.4-37.1-8.2c-10-7.1-21.8-10-33.3-13.9c-10.3-2.1-19.7-7-29.9-9.6
		c-14.1-5.6-29.7-6.4-43.4-13.4c-15.5-11.6-33.5-8-50.9-8.4c-6.1-8-16.3-9.1-24.2-14.1c-19.7-7.3-38.2-20-60.8-12.5
		c-15.2-20.9-37.4-19.1-59.3-18.5c-6.1-8.3-16.5-9.2-24.4-14.4c-16.9-7.5-34.1-13.7-52.4-17.1c-16.8-4.3-33.6-8.6-50.2-13.6
		c-3-0.1-6.1-0.2-9.1-0.3c-8.8-8.6-21.9-7.5-31.8-13.9c-17-7.4-34.4-13.8-52.7-17.1c-16.8-4.4-33.6-8.6-50.1-13.6
		c-12.5-3.3-25.1-6.7-37.6-10c-19.2-13.6-42.9-15.3-63.9-23.9c-19.7-10.9-44-7-62.9-20c-5.7-0.4-11.4-0.7-17.1-1.1
		c-15.7-13-38.7-11.2-53.5-26.2l-2.4,0.7c-25.7-6.1-52.8-5.9-77-18.3c-2.5,0.2-4.9,0.3-7.4,0.4c-15.9-14.7-40.9-10.9-55.8-27.5
		l-3.8,0.5c-17.4,1.2-32.4-10-49.7-9.3c-13-1.1-23.9-8.9-36.6-11.1c-16.6-9.5-37.6-9.9-51.9-24.5l-2.9,0l-2.9,0
		c-17.3,1.1-32.3-10-49.5-9.3c-12.9-1.1-23.8-8.9-36.4-11.1c-16.5-9.5-37.4-9.9-51.6-24.4c-2.2-0.1-4.3-0.1-6.5-0.2
		c-17.2,1-32.1-10-49.2-9.3c-12.8-1-23.6-8.9-36.1-10.9c-16.3-9.5-36.9-9.9-51-24.2c-2.6-0.2-5.2-0.4-7.8-0.6
		c-19.4-1.1-37.2-8.4-55.5-13.8c-17.9-6-38.9-4.3-52.5-21.1c-2.9-0.4-5.8-0.7-8.7-1c-17.3,0.2-32.3-7.9-48.1-13.3
		c-13.6-5.5-28.9-3-42.4-9.2c-15.4-5.7-32.7-7.6-44.2-21.2c-3.2-0.4-6.4-0.8-9.6-1.2c-10.2,0.5-19.6-3.3-29.1-5.8
		c-18.5-4.3-35.1-18.1-55.8-11.7c-2.2-0.1-4.3-0.2-6.5-0.2c-12.9-12.5-33.4-12.3-44.9-26.9c-2.5-0.1-5-0.1-7.5-0.2
		c-10.2,0.5-19.5-3.3-29-5.9c-18.5-4.3-35-18-55.6-11.8c-19.5-9.1-39-18.2-58.6-27.3c-10.2,0.6-19.6-3.1-29.2-5.7
		c-18.5-4.4-35.1-18.1-55.9-11.9c-19.6-9.1-39.1-18.2-58.7-27.3c-10.8,0.5-20.7-3.4-30.8-6.2c-17.4-7.7-36.7-10.2-52.9-20.9
		c-22.7,3-41.9-5.7-60.1-17.9c-10.8,0.4-20.7-3.5-30.8-6.2c-17.3-7.7-36.7-10.2-52.9-20.9c-22.7,3.1-41.9-5.8-60.1-17.8
		c-10.5,0.5-20.2-3.4-30.1-6c-17.6-6-34.8-13.4-53.2-16.6c-18.8-2.9-36.6-8.8-53.5-17.4c-12.3-2.7-24-7.4-36.1-10.6
		c-17.9-6.1-35.3-13.5-54-16.9c-18.9-2.8-36.8-8.9-53.8-17.4c-22.1-2.6-41-20.6-65.1-13.4c-10-7.5-18.7-20.2-33.8-9.4
		c-13.7-11.7-31.5-15-47.2-22.7c-15.7-4.2-30.9-9.8-46.2-15.1c-14.3-2.2-27.7-7.5-41.4-11.8c-12.3-2.7-23.1-10.4-36.2-10.3
		c-16.9-5.5-33.3-12.4-50.4-17.5c-20.4-8.7-44.5-9.2-60.9-27c-1.3-721.2-0.2-1442.2-0.6-2163.3c0-85.3,0-170.5,0-255.8
		c16.4-35.7,40.4-2.2,60.2-6.5c22,7.8,44.4,14.3,67.3,19c20.4,8.7,42,13,63.4,18.1c19.8,8.2,41.4,10.3,61.4,17.6
		c9.7,3.8,20.2,4.5,29.8,8.5c11.9,2.4,23.3,7,35,10c9.3,3.8,19.7,4.2,28.9,8.2c11.9,2.5,23.2,7.1,34.9,10.1
		c9.7,3.6,20.2,4.3,29.9,8.2c16.9,3.5,32.1,11.5,48,17.8c20.4-0.9,38.8,7.8,58.2,12c8.3,3.6,13.4,14.4,24.7,11.4
		c20.6,0.7,40.5,4,57.8,16.3c1.3,1.9,3,2.4,5.2,1.5c20.5,1.1,40.4,4.1,57.7,16.4c1.4,1.9,3.2,2.4,5.4,1.6c20.4,1,40.2,4.1,57.4,16.3
		c1.6,1.9,3.6,2.5,5.9,1.9c20.2,0.9,39.8,4,56.9,16c1.7,1.8,3.7,2.5,6.2,2c20.1,0.7,39.6,3.9,56.5,15.8c1.2,1.7,2.8,2.2,4.8,1.3
		c19.7,1,38.5,5.8,56.7,13c14.6,3.6,28.6,9.3,43.8,10.6c19.1,10.1,40.2,13.5,61.1,17.3c9.1,6.1,19.4,8.8,30.1,9.8
		c17.7,7.9,38.7,6.6,54.6,19.6c1.8,1.7,3.9,2,6.1,0.7c19.6,3.3,39.9,4.7,56.7,17.2c1.9,1.7,4,1.9,6.3,0.7
		c20.4,0.8,39.3,6.3,56.6,17.3c2.2,1.6,4.6,2,7.2,1.1c19.4,1.8,38,6.3,54.7,17c2.7,1.3,5.5,1.6,8.3,0.9c20.4-1.4,37.3,8.3,54.5,17.1
		c2.5,1.3,5.2,1.6,7.9,0.7c20,1.1,38.8,5.7,55.6,17.3c2.4,1.3,4.8,1.6,7.4,0.7c19.9,1.4,38.8,5.7,55.5,17.3c2.4,1.3,4.9,1.5,7.5,0.6
		c19.8,1.5,38.8,5.7,55.5,17.3c11.1,3.1,22.2,6.1,33.3,9.2c21.6-1.5,40.9,4.5,58.1,17.4c1.4,1.5,3,1.7,4.7,0.5
		c21.6-1.5,40.9,4.5,58.2,17.4c1.4,1.5,3,1.7,4.8,0.6c21.5-1.5,40.8,4.6,58.1,17.3c5,0.6,10,1.2,14.9,1.8c17.3,1.4,34.3,4,48,16.2
		c5,0.6,10,1.2,14.9,1.8C-4844,2558.8-4827,2561.5-4813.3,2573.5z"/>
	<path class="st2" d="M-2463.7,5800.4c31.9-70.6,38.6-146.9,45.3-222.1c14.5-164.8,24.8-330,35.6-495.2
		c4.7-71.5,6.7-143.6,7.3-214.9c2.3-266.2,21.1-532.1,8.3-798.5c-6.4-132.8-5.1-266-15.5-398.5c-10.5-134-13.5-270.1-65.2-397.7
		c-5.4-13.4-8.9-28.7-24.5-35.2c19.9-42.9,58.7-33.4,93.6-33.4c3432-0.1,6864-0.1,10296-0.2c20.8,0,41.7-1.9,62.5-2.9
		c29.4-3.5,43.2-3.1,41.9,39c-2,65.9,26.1,129.2,44.1,193c30.9,109.8,44.4,222.7,58.9,335.7c26.4,206.3,29.2,413.9,31.5,620.9
		c1.6,150.4-2,301.7-11.7,452.5c-6.8,105.6-11,211.6-21.3,316.9c-18.5,189.8-37.4,379.9-94.2,563.3c-14.4,46.4-15.4,49.8-8.8,104.6
		c-17.9,0-35.4,0-52.8,0c-2417.6,0-4835.2,0-7252.8,0.1c-16.4,0-32.9,0.9-49.3,1.4c-17.9,14-39.2,13.1-60.1,13.1
		c-550,0.2-1099.9,0.2-1649.9,0c-20.9,0-42.2,0.9-60.1-13.1c-212.2-0.5-424.5-1.2-636.7-1.4c-224.2-0.3-448.5,0.1-672.7-0.3
		C-2434.7,5827.6-2462,5836.2-2463.7,5800.4z"/>
	<path class="st3" d="M-1104.8,5829.4c59.7-0.5,119.4-1.4,179.2-1.4c513.9-0.1,1027.8-0.1,1541.7,0c16.4,0,32.8,0.9,49.2,1.4
		c-19.3,74-114.5,123-195.7,123.3c-462.6,2-925.2,3.4-1387.8-1.1C-1012.7,5950.7-1071.2,5924.3-1104.8,5829.4z"/>
	<path class="st4" d="M3739.3,1993.5c-19,13.7-40.6,6.4-60.7,6.4c-3463.3,0.4-6926.6,0.4-10389.8,1.1c-14.7,0-36.3-13.8-45.6,11.8
		l2.8,3.5l-3.3,3.1c-22.2-1.3-43-5.9-64.9-28.2c17.6,0,28.7,0,39.8,0c3467,0,6934.1,0,10401.1,0.4
		C3658.9,1991.7,3699.3,1982.4,3739.3,1993.5z"/>
	<path d="M-6693.4,2046c0,798.3-0.1,1596.5,0.3,2394.8c0,13.6-8,30.1,8,41.1c2.2,1.7,3.1,3.5,2.5,5.4c-0.6,1.9-1.3,2.9-2,2.9
		c-6.1-2.7-12.4,15.9-18.4-0.2c-4.6-6.6-4.9-13.1,0-19.7c0-810.9,0-1621.8,0-2432.7c-2.4-2.3-3.1-4.5-2.2-6.6
		c0.9-2.1,1.8-3.1,2.6-3.1c5.7,0.5,11.4,1,17,1.4C-6680.4,2038.6-6689.6,2041-6693.4,2046z"/>
	<path class="st5" d="M-2973.8,5639.9c28.4,4.9,56.1,11.9,81.8,25.6c-4,8.3-11.9,9.4-19.7,10.7c-17.9-6.2-35.8-12.4-53.7-18.6
		C-2965.6,5650.5-2978.8,5649.5-2973.8,5639.9z"/>
	<path class="st6" d="M-2695.1,5728.4c25.2,5.6,52,7.3,71.5,27.7c-27,7.1-49.2-6.2-71.8-17.2
		C-2700.2,5735.2-2700.1,5731.7-2695.1,5728.4z"/>
	<path class="st7" d="M-4556.5,5153.7c29.1-8.4,52.5,7.4,77,18.3C-4508.3,5179.2-4535.9,5181.2-4556.5,5153.7z"/>
	<path class="st5" d="M-3109.1,5612.1c26.3-13.5,49.9-5.3,72.7,9c-4,8-11.8,9.1-19.4,10.5C-3073.5,5625-3091.3,5618.6-3109.1,5612.1
		z"/>
	<path class="st8" d="M-4406.6,5198.5c25.4-5.6,46.3,6.6,67.6,17.1c3.1,2.2,4,4.3,2.8,6.2c-1.2,1.8-2.3,2.8-3.5,2.8
		C-4361.4,5214.8-4393.4,5230.7-4406.6,5198.5z"/>
	<path class="st9" d="M-5163.6,4957.4c17.9,4.9,38.9,2.4,50.9,21.3l1.1,2.2C-5133.9,4983.9-5157.4,4989.7-5163.6,4957.4z"/>
	<path class="st10" d="M-4339.6,5224.7c0.2-3,0.4-6,0.7-9c20.9,6.3,48.6-2.3,59.2,26.8C-4301.6,5243-4321.5,5236.8-4339.6,5224.7z"
		/>
	<path class="st11" d="M-6381.2,4588.4c25-20.8,43.7,4,65.1,9c2.1,2.1,2.8,4.1,2.1,6.1c-0.8,2-1.5,3-2.3,3
		C-6339.6,4606.3-6359.8,4595.2-6381.2,4588.4z"/>
	<path class="st12" d="M-6172.4,4642.5c19.2,2.3,37.9,6.3,53.9,18.3c3.1,1.5,4.1,3,3.1,4.6c-1,1.5-2,2.3-3.1,2.3
		c-21.5,6-39-1.2-54-16.4c-3.1-2-4.2-3.9-3.1-5.8C-6174.5,4643.4-6173.5,4642.5-6172.4,4642.5z"/>
	<path class="st13" d="M-6702.5,2027.9c-0.2,3.2-0.3,6.5-0.5,9.7c-18.5-5-38.1-6.5-54.4-18.1c0.1-2.2,0.2-4.4,0.5-6.6
		C-6737,2011.4-6718.4,2014.6-6702.5,2027.9z"/>
	<path class="st14" d="M-3912,5361.1c25.7-24.6,45.6,1.7,67.8,7.8c-3.7,7.9-11.8,5.5-18,7.8
		C-3878.8,5371.4-3895.4,5366.2-3912,5361.1z"/>
	<path class="st15" d="M-5111.7,4980.8c0,0-1.1-2.2-1.1-2.2c21.7-6.7,39.5,3.2,57.1,13.6
		C-5077.5,5004.2-5095.2,4995.5-5111.7,4980.8z"/>
	<path class="st16" d="M-4477.1,5171.3c18.3,7.8,44.9-1.5,53.5,26.2C-4444,5193.9-4469.3,5200.5-4477.1,5171.3z"/>
	<path class="st12" d="M-6316.3,4606.4c0.1-3,0.1-6,0.2-9c19.1,2.7,37.8,6.5,53.9,18.3c3.1,1.6,4.1,3.1,3.1,4.7
		c-1,1.6-2,2.4-3.1,2.4C-6283.7,4628.7-6301.2,4621.3-6316.3,4606.4z"/>
	<path class="st16" d="M-4619.7,5126.5c19,8.5,47.1-1.7,55.8,27.5C-4585.6,5151.2-4610.9,5155.4-4619.7,5126.5z"/>
	<path class="st15" d="M-5047.8,4992.8c18.4,3.6,36.8,7.1,52.6,18.1c1,7.9-0.1,13.4-10,8.5C-5018,5008.3-5046,5021.5-5047.8,4992.8z
		"/>
	<path class="st17" d="M-4761.8,5082.1c18.6,4.5,38.1,6.3,54,18.4c1.1,8.2,0,13.8-10.3,8.9
		C-4731.7,5098.9-4759.6,5111.1-4761.8,5082.1z"/>
	<path class="st18" d="M-4186.7,5261.8c19.3,2.4,38.1,6.1,54.4,17.6c-3.7,7.3-11.2,5.2-17.1,7c-12.8-3.9-27.7-2.1-37.7-13.7
		C-4191.8,5268.9-4191.7,5265.2-4186.7,5261.8z"/>
	<path class="st19" d="M-4042.9,5306.6c19.3,2.4,38.2,5.9,54.4,17.6c-3.7,7.4-11.2,5.2-17.2,7.1c-12.8-3.8-27.6-2.2-37.7-13.6
		C-4048,5313.8-4047.9,5310.1-4042.9,5306.6z"/>
	<path class="st20" d="M-4905.1,5037.3c18.6,3.9,37.6,6.6,53.6,18.3c1,8.1-0.1,13.8-10.2,8.8
		C-4875.1,5053.7-4903.1,5066.4-4905.1,5037.3z"/>
	<path class="st21" d="M-3441,5495.5c17.8,1.7,35.5,3.6,48.7,17.9c-19.3,14.9-33.6,0.6-48.8-8.5c-3.1-2.1-4.1-4.2-3-6.3
		C-3443.1,5496.5-3442,5495.5-3441,5495.5z"/>
	<path class="st22" d="M-3162,5584.6c20.6,4.2,48.1-4.5,53.9,28.1c-18.5-6.6-39.2-7.4-54.7-21.4l-2.1-3.7L-3162,5584.6z"/>
	<path class="st22" d="M-2973.8,5639.9c-2.5,8.4,19.6,5.2,8.4,17.7c-17.9-7-38.5-7.3-53.7-21.3l-2.2-3.6l2.9-3.1
		C-3001.6,5624.8-2988.6,5636.2-2973.8,5639.9z"/>
	<path class="st12" d="M-2587.2,5765c23.8-2.8,44.1,7.7,64.7,17c-4.2,8.3-13.4,3.6-19.3,7.6C-2557.3,5782-2580.5,5788.6-2587.2,5765
		z"/>
	<path class="st23" d="M-6684.7,4490.2c-1.5-2.7-1.6-5.5-0.5-8.3c18.1,5.6,36.3,11.3,54.4,16.9c2.1,2.1,2.8,4.2,2,6.2
		c-0.8,2-1.5,3-2.2,3C-6650.4,4506.8-6669,4502.8-6684.7,4490.2z"/>
	<path class="st12" d="M-6459.9,4552.5c16,7,43.1-4.8,44.9,26.4c-19.2,4.9-32.1-6.4-45.1-17.5c-3.1-2.1-4.1-4.1-3-6.1
		C-6462,4553.5-6461,4552.5-6459.9,4552.5z"/>
	<path class="st15" d="M-5453.1,4866.7c16.3,6.8,42.7-3.3,44.9,26.9C-5429.7,4895.7-5447.3,4891-5453.1,4866.7z"/>
	<path class="st24" d="M-5307,4912.6c15.2,1.8,30.1,4.5,42.8,14c3.5,4.7,3.1,9-1.3,12.9C-5285.1,4939.4-5303.5,4937.6-5307,4912.6z"
		/>
	<path class="st25" d="M-5265.5,4939.5c0.4-4.3,0.8-8.6,1.3-12.9c14.7,4.2,29.3,8.4,44,12.6c2.2,2.2,2.9,4.3,2.2,6.5
		c-0.7,2.2-1.5,3.2-2.2,3.2C-5234.7,4943-5252.9,4954.5-5265.5,4939.5z"/>
	<path class="st24" d="M-5401.6,4893.8c22.3-20.4,39,3.6,58.3,7.4c-1.7,5.5-7.2,6.1-11.2,8.7
		C-5370.3,4904.5-5385.9,4899.2-5401.6,4893.8z"/>
	<path class="st26" d="M-2911.7,5676.3c3.6-9,12.4-8.4,19.7-10.7c8.7,3.1,17.5,6.1,26.2,9.2c2.2,2.5,2.9,5,2,7.4
		c-0.8,2.4-1.7,3.6-2.4,3.6C-2880.9,5680.2-2898.8,5690.5-2911.7,5676.3z"/>
	<path class="st24" d="M-6118.5,4667.6c0-2.3,0-4.6,0-6.9c20.3-0.6,38.4,6.8,55.9,16.1c-1.5,5.4-6.8,5.9-10.7,8.3
		C-6088.2,4678.9-6106,4679.9-6118.5,4667.6z"/>
	<path class="st15" d="M-4672.3,5110.8c17.5,1.6,34.3,5.3,48.7,16.2c-17,17.3-32.4-3.6-48.8-2
		C-4677.1,5120.2-4677,5115.5-4672.3,5110.8z"/>
	<path class="st24" d="M-5975.2,4704.6c20,1.7,38.9,7,56.4,17.1c-1.5,5.4-6.9,5.9-10.7,8.3
		C-5944.9,4721.7-5968.7,4728.6-5975.2,4704.6z"/>
	<path class="st27" d="M-4672.3,5110.8c0,4.7,0,9.5-0.1,14.2c-17.8,2.2-31.4-7.7-45.6-15.7c3.4-3,6.8-5.9,10.3-8.9
		C-4695.9,5103.9-4684.1,5107.3-4672.3,5110.8z"/>
	<path class="st28" d="M-5220.2,4949c0-3.2,0-6.5,0-9.7c17,2.9,34.5,4.3,47.9,17.1C-5190.6,4968.7-5205.4,4958.6-5220.2,4949z"/>
	<path class="st21" d="M-4816.1,5065.9c17.3,2,34.3,4.8,48.4,16.2c-16.9,17.2-32.2-3.8-48.5-2
		C-4820.8,5075.3-4820.8,5070.6-4816.1,5065.9z"/>
	<path class="st24" d="M-5831.4,4749.5c19.9,2,38.9,6.8,56.3,17.1c-1.5,5.4-6.9,6-10.8,8.4
		C-5801.1,4766.7-5824.8,4773.4-5831.4,4749.5z"/>
	<path class="st29" d="M-4816.1,5065.9c0,4.7,0,9.4-0.1,14.1c-17.7,2-31.4-7.4-45.6-15.7c3.4-2.9,6.8-5.8,10.2-8.8
		C-4839.7,5059.1-4827.9,5062.5-4816.1,5065.9z"/>
	<path class="st24" d="M-5688.9,4803.9c22.2-20.2,38.7,3.6,57.7,7.5c-1.6,5.5-7,6-10.9,8.5
		C-5657.7,4814.6-5673.3,4809.3-5688.9,4803.9z"/>
	<path class="st24" d="M-5545.2,4848.9c22.2-20.2,38.8,3.6,58,7.4c-1.7,5.5-7.1,6.1-11.1,8.6
		C-5514,4859.6-5529.6,4854.2-5545.2,4848.9z"/>
	<path class="st30" d="M-5005.2,5019.4c3.3-2.8,6.6-5.6,10-8.5c11.8,3.3,23.6,6.7,35.4,10c5.5,4.7,5.6,9.5,0,14.2
		C-4977.4,5036.8-4991.3,5028.1-5005.2,5019.4z"/>
	<path class="st15" d="M-4959.9,5035.2c0-4.7,0-9.5,0-14.2c17.2,2.1,34.2,4.8,48.3,16.2C-4928.4,5054.2-4943.7,5033.3-4959.9,5035.2
		z"/>
	<path class="st31" d="M-6459.9,4552.5c-0.1,3-0.1,6-0.2,9c-20.3-0.3-38.7-6.5-55.7-17.2c1.2-5.6,6.3-6,10.4-7.6
		C-6490.3,4541.9-6475.1,4547.2-6459.9,4552.5z"/>
	<path class="st15" d="M-3297.1,5540.2c17.6,5.6,43.4-2.6,46.5,27.6c-15.8-5.2-33.6-5.3-46.7-17.7
		C-3302.2,5546.6-3302.1,5543.4-3297.1,5540.2z"/>
	<path class="st24" d="M-6262.3,4622.8c0-2.3,0-4.7,0-7c20.3-0.6,38.3,7,55.8,16.2c-1.5,5.4-6.8,5.9-10.6,8.3
		C-6231.9,4633.9-6249.7,4635-6262.3,4622.8z"/>
	<path class="st11" d="M-2866.2,5685.7c0.1-3.6,0.3-7.3,0.4-10.9c17.1,1.8,33.7,5.3,47.8,16.2c-1,6.4-6.8,6.8-11.3,8.8
		C-2841.5,5694.6-2856.5,5697.2-2866.2,5685.7z"/>
	<path class="st32" d="M-3018.4,5629.6c-1.7,2.1-1.9,4.3-0.7,6.7c-12.1-2.7-26.3,10.8-36.6-4.8c2.7-10.3,12.4-8,19.4-10.5
		C-3030.4,5623.9-3024.4,5626.8-3018.4,5629.6z"/>
	<path class="st33" d="M-4149.4,5286.4c5.7-2.3,11.4-4.7,17.1-7c9.8,3.9,25.3-0.3,24.9,17.8
		C-4121.8,5295.1-4138.4,5301.5-4149.4,5286.4z"/>
	<path class="st34" d="M-6630.9,4508.1c0.1-3.1,0.1-6.2,0.2-9.3c16.7,2.5,33.2,5.5,47.4,15.7c-1.1,5.9-6.3,6.2-10.6,7.7
		C-6605.8,4516.2-6621.5,4520.3-6630.9,4508.1z"/>
	<path class="st35" d="M-3162,5584.6c-1.7,2.1-2,4.3-0.8,6.7c-12.1-2.7-26.2,11.1-36.6-4.7c-0.7-16.6,7.9-16,19.3-10.4
		C-3174.2,5579-3168.1,5581.8-3162,5584.6z"/>
	<path class="st36" d="M-6774.4,4453.7c16.5,3,33.2,5.6,47.3,16c-1.1,5.9-6.3,6.2-10.6,7.6c-11.9-5.9-27.4-2.1-37.1-13.9
		C-6779.7,4459.9-6779.5,4456.7-6774.4,4453.7z"/>
	<path class="st37" d="M-2496.8,5791.5c9.5,3.1,18.9,6.3,28.4,9.4c-12.7,5.9-25.4,16.7-38.6,0.9
		C-2509,5793-2506.7,5788.4-2496.8,5791.5z"/>
	<path class="st25" d="M-4186.7,5261.8c-0.1,3.6-0.3,7.3-0.4,10.9c-19.3-4-39.9-4.7-55-20.2
		C-4221.3,5241.9-4205.1,5258.4-4186.7,5261.8z"/>
	<path class="st38" d="M-4042.9,5306.6c-0.1,3.7-0.3,7.4-0.4,11.1c-19.3-4-39.9-4.6-54.9-20.3
		C-4077.7,5288-4061.2,5302.5-4042.9,5306.6z"/>
	<path class="st33" d="M-4005.7,5331.3c5.7-2.4,11.5-4.7,17.2-7.1c8.7,3.3,24.3,0.2,17.2,18.3
		C-3983.6,5341.3-3997,5343.5-4005.7,5331.3z"/>
	<path class="st39" d="M-3862.2,5376.6c6-2.6,12-5.2,18-7.8c9.7,2.7,24.3,0.9,17.2,18.9C-3839.6,5386.9-3853.1,5388.7-3862.2,5376.6
		z"/>
	<path class="st27" d="M-3776.1,5396.1c17.9-5.6,32.5,3.6,47.6,10.4c2.1,1.7,2.9,3.3,2.2,5c-0.7,1.7-1.4,2.6-2.1,2.6
		C-3746.9,5415-3763.4,5410.4-3776.1,5396.1z"/>
	<path class="st40" d="M-3391.5,5513c16.1-2.3,30.6,0.2,41,14.2C-3366.7,5529.7-3384.3,5536.3-3391.5,5513z"/>
	<path class="st41" d="M-3297.1,5540.2c-0.1,3.3-0.1,6.5-0.2,9.8c-18.6-0.9-36-5.2-49.9-18.8
		C-3328.7,5524.1-3313.3,5534.1-3297.1,5540.2z"/>
	<path class="st27" d="M-3632.5,5441c17.9-5.6,32.6,3.3,47.8,10.4c2.1,1.7,2.9,3.3,2.2,5c-0.7,1.7-1.4,2.6-2.1,2.6
		C-3603.2,5460.2-3619.6,5455.3-3632.5,5441z"/>
	<path class="st42" d="M-2782.6,5703.1c12.3-1.8,24.8-4.7,34.1,7.3c-0.6,5.7-5.9,6.7-9.4,9.4
		C-2770.7,5721.1-2784.4,5723.6-2782.6,5703.1z"/>
	<path class="st43" d="M-2496.8,5791.5c-3.4,3.4-6.8,6.9-10.2,10.3c-11.6-4.1-23.2-8.2-34.9-12.2c6.4-2.5,12.9-5.1,19.3-7.6
		C-2514,5785.1-2505.4,5788.3-2496.8,5791.5z"/>
	<path class="st6" d="M-6217.1,4640.2c3.5-2.8,7.1-5.5,10.6-8.3c12.8-1.1,23.5,4.4,34.1,10.5c0,2.9,0,5.8-0.1,8.7
		C-6187.4,4647.5-6202.2,4643.9-6217.1,4640.2z"/>
	<path class="st41" d="M-3441,5495.5c0,3.2-0.1,6.3-0.1,9.5c-18.7-0.8-36-5.1-49.9-18.7C-3472.5,5479.5-3457,5489.2-3441,5495.5z"/>
	<path class="st6" d="M-5929.6,4730c3.6-2.8,7.1-5.6,10.7-8.3c10.1,0.7,20.7-0.2,27.3,10C-5905,4750.6-5916.7,4727.4-5929.6,4730z"
		/>
	<path class="st6" d="M-6073.3,4685.1c3.6-2.8,7.1-5.5,10.7-8.3c10.1,0.6,20.7-0.1,27.3,9.9
		C-6048.8,4705.7-6060.5,4682.3-6073.3,4685.1z"/>
	<path class="st10" d="M-3701,5413.6c16.1-2.7,24.2,7.5,31.4,19.3c-10.3-4.4-24.1,4.6-32.1-8.5
		C-3706.5,5420.4-3706.3,5416.8-3701,5413.6z"/>
	<path class="st36" d="M-6774.4,4453.7c-0.2,3.2-0.3,6.5-0.5,9.7c-13.5-0.1-26.6-1.2-35.3-14.4
		C-6796,4436-6786,4451.1-6774.4,4453.7z"/>
	<path class="st44" d="M-5354.6,4909.8c3.7-2.9,7.5-5.8,11.2-8.7c9.8,1.1,20.7-0.6,26.7,10.2
		C-5329.9,4925-5342,4911.1-5354.6,4909.8z"/>
	<path class="st45" d="M-3180.2,5576.2c-6.9,2.5-16.4,0.2-19.3,10.4c-9.8-2.5-17.5-6.8-16-18.9
		C-3202.8,5566.9-3190,5565.1-3180.2,5576.2z"/>
	<path class="st46" d="M-6505.4,4536.6c-3.5,2.5-6.9,5.1-10.4,7.6c-12.8,0.4-24.4-2.9-33.9-11.9c0-1.9,0-3.8,0-5.8
		C-6533.3,4522.5-6520.4,4534.2-6505.4,4536.6z"/>
	<path class="st47" d="M-6549.8,4526.6c0,1.9,0,3.8,0,5.8c-16.3,3.3-29.3-7.6-44.2-10.1c3.5-2.6,7.1-5.1,10.6-7.7
		C-6570.9,4515-6558.9,4516.7-6549.8,4526.6z"/>
	<path class="st21" d="M-5498.3,4864.9c3.7-2.9,7.4-5.7,11.1-8.6c9.8,1.1,20.6-0.7,26.7,10.2
		C-5473.7,4880.1-5485.8,4866.1-5498.3,4864.9z"/>
	<path class="st23" d="M-5642.1,4819.9c3.6-2.8,7.3-5.6,10.9-8.5c10,0.9,20.8-0.1,27.4,10.1
		C-5617.4,4840.5-5629.2,4817.3-5642.1,4819.9z"/>
	<path class="st48" d="M-2695.1,5728.4c-0.1,3.5-0.2,7-0.4,10.5c-13.4,1.3-24.8-3.7-35.8-10.6c-2-2.3-2.6-4.4-1.7-6.5
		c0.8-2,1.6-3.1,2.3-3.1C-2717.2,5716.3-2706.6,5723.8-2695.1,5728.4z"/>
	<path class="st6" d="M-5785.8,4775c3.6-2.8,7.2-5.6,10.8-8.4c10.1,0.8,20.8-0.2,27.4,10C-5761.2,4795.6-5773,4772.4-5785.8,4775z"
		/>
	<path class="st39" d="M-3701,5413.6c-0.2,3.6-0.4,7.2-0.7,10.7c-9.9-0.7-20.4,0-26.7-10.2c-0.1-2.5-0.2-5.1-0.1-7.6
		C-3719.3,5408.9-3710.2,5411.2-3701,5413.6z"/>
	<path class="st39" d="M-3584.6,5459c-0.1-2.5-0.2-5.1-0.1-7.6c12,1.6,26.8-1.5,28.1,17.3C-3567.2,5469-3577.8,5469.6-3584.6,5459z"
		/>
	<path class="st49" d="M-6737.7,4477.2c3.5-2.5,7.1-5.1,10.6-7.6c8.1,0.2,16.1,0.4,24.2,0.7c0,6.6,0,13.1,0,19.7
		C-6714.6,4485.7-6726.2,4481.5-6737.7,4477.2z"/>
	<path class="st26" d="M-2829.3,5699.7c3.8-2.9,7.5-5.8,11.3-8.8c12-4.8,14.6,9.5,23.2,11.4
		C-2807.3,5715.2-2817.7,5699.2-2829.3,5699.7z"/>
	<path class="st32" d="M-2730.6,5718.7c-0.2,3.2-0.4,6.4-0.6,9.6c-10.5,2.2-18.3-4.2-26.7-8.5c3.1-3.1,6.3-6.2,9.4-9.4
		C-2742.5,5713.2-2736.5,5715.9-2730.6,5718.7z"/>
	<path class="st50" d="M-6693.4,2046c2.6-5.6,5.3-11.2,7.9-16.7c21.1,5.9,42.2,11.9,63.4,17.8c0.6,8.2-1.7,12.6-10.6,7.9
		C-6653.9,2058.2-6671.9,2040.3-6693.4,2046z"/>
	<path class="st50" d="M-6506.7,2090.9c-22.3-1.1-43.6-5.9-62.8-17.9c1.4-5.3,6.6-5.7,10.4-7.8c20.9,6,41.9,12,62.8,17.9
		C-6495.7,2091-6497.6,2095.7-6506.7,2090.9z"/>
	<path class="st50" d="M-6559.1,2065.1c-3.5,2.6-6.9,5.2-10.4,7.8c-22.4-1.2-43.8-6-63.2-17.9c3.5-2.6,7.1-5.3,10.6-7.9
		C-6601.1,2053.1-6580.1,2059.1-6559.1,2065.1z"/>
	<path class="st50" d="M-6506.7,2090.9c3.5-2.6,6.9-5.2,10.4-7.8c21,5.6,42,11.2,63.1,16.8c1.4,8.5-0.2,13.6-10.3,9.2
		C-6466.1,2108.1-6486.9,2101.1-6506.7,2090.9z"/>
	<path class="st51" d="M-6098.3,2206.1c-20.5-1-40.1-5.2-57.8-16.3C-6132.2,2178.6-6112.6,2182.7-6098.3,2206.1z"/>
	<path class="st51" d="M-6035.5,2224c-20.5-1.1-40.1-5.1-57.7-16.4C-6069.2,2196.5-6049.6,2200.8-6035.5,2224z"/>
	<path class="st52" d="M-5972.7,2241.9c-20.3-1.1-39.9-5.1-57.4-16.3C-6006.3,2214.5-5986.8,2218.7-5972.7,2241.9z"/>
	<path class="st51" d="M-5909.9,2259.8c-20.2-1-39.5-5.1-56.9-16C-5943.1,2232.4-5923.9,2236.8-5909.9,2259.8z"/>
	<path class="st53" d="M-5847.2,2277.7c-20-1.1-39.2-5.1-56.5-15.8C-5880.3,2250.8-5861,2254.5-5847.2,2277.7z"/>
	<path class="st54" d="M-5786.7,2295.6c-19.2-3.3-39.2-4.1-55.7-16.6c21.1-12.9,38.5-0.9,56.5,8.1c3.2,2.2,4.2,4.2,2.9,6
		C-5784.3,2294.8-5785.5,2295.6-5786.7,2295.6z"/>
	<path class="st55" d="M-4117.3,2771.4c-17.8-3.9-36.9-4-52-16.6C-4148.5,2749.4-4128.2,2745.6-4117.3,2771.4z"/>
	<path class="st56" d="M-5533.3,2367.3c-20.3-1-39.3-6.4-56.7-17.2C-5566.5,2340.9-5546.9,2344-5533.3,2367.3z"/>
	<path class="st57" d="M-4054.3,2789.3c-17.9-3.9-37.1-4-52.2-16.7C-4085.6,2767.4-4065.2,2763.6-4054.3,2789.3z"/>
	<path class="st58" d="M-3991.2,2807.3c-18-3.8-37.2-4-52.3-16.7C-4022.6,2785.2-4002.3,2781.6-3991.2,2807.3z"/>
	<path class="st59" d="M-2795.8,3148.8c-17.5-3.5-36.3-3-50.4-16.7C-2824.7,3123.7-2806.4,3124.7-2795.8,3148.8z"/>
	<path class="st60" d="M-5678.9,2325.4c-22.1-2.1-43.3-7.6-63.1-18c-2.7-2.2-3.5-4.2-2.4-6c1.1-1.7,2.2-2.6,3.2-2.6
		c21,6,41.9,11.9,62.9,17.9c2.4,2.1,3.1,4.1,2.1,6C-5677.1,2324.5-5678,2325.4-5678.9,2325.4z"/>
	<path class="st61" d="M-5282.2,2439.3c-19.3-3.2-39-5.1-55.6-17.3C-5314.9,2413.7-5295.3,2415.8-5282.2,2439.3z"/>
	<path class="st17" d="M-2549.3,3220.6c-19.7-5.8-39.4-11.7-59.1-17.5C-2583.3,3190.8-2563.7,3196.8-2549.3,3220.6z"/>
	<path class="st62" d="M-6180.9,2178.5c-22.7,7.9-41.9-8.7-63.4-9.1c-2.4-2.1-3.2-4.1-2.2-6.1c0.9-1.9,1.8-2.8,2.7-2.8
		C-6221.9,2163.3-6198.1,2159.1-6180.9,2178.5z"/>
	<path class="st63" d="M-2732.8,3166.8c-17.5-3.5-36.4-3-50.5-16.8C-2763.1,3145.4-2743,3141.2-2732.8,3166.8z"/>
	<path class="st56" d="M-5596.1,2349.4c-19.5-0.8-37.7-6.1-54.5-16.2c1-4,3.6-6.5,7.5-7.7
		C-5627.5,2333.8-5603.2,2324.6-5596.1,2349.4z"/>
	<path class="st56" d="M-5470.4,2385.3c-20.3-1-39.2-6.5-56.6-17.3C-5503.7,2359.3-5483.9,2361.9-5470.4,2385.3z"/>
	<path class="st64" d="M-5408.6,2403.4c-18.9-3.4-38.4-5.1-54.7-17C-5441.1,2379.3-5421.6,2380.9-5408.6,2403.4z"/>
	<path class="st65" d="M-5219.4,2457.3c-19.2-3.5-39.1-4.9-55.5-17.3C-5252,2431.8-5232.3,2433.7-5219.4,2457.3z"/>
	<path class="st66" d="M-5156.5,2475.2c-19.1-3.7-39.1-4.7-55.5-17.3C-5189.1,2449.7-5169.4,2451.8-5156.5,2475.2z"/>
	<path class="st67" d="M-5065,2501.8c-19.4-5.8-38.8-11.6-58.1-17.4C-5098.5,2472.7-5079.1,2478.4-5065,2501.8z"/>
	<path class="st68" d="M-5002.1,2519.7c-19.4-5.8-38.8-11.6-58.1-17.4C-5035.7,2490.6-5016.3,2496.4-5002.1,2519.7z"/>
	<path class="st69" d="M-4939.2,2537.7c-19.4-5.8-38.7-11.6-58.1-17.3C-4972.8,2508.8-4953.3,2514.3-4939.2,2537.7z"/>
	<path class="st70" d="M-3928.7,2825.1c-17.7-4.3-36.9-4.1-51.8-16.8C-3959.8,2803.2-3939.4,2799.4-3928.7,2825.1z"/>
	<path class="st31" d="M-2486.8,3238.4c-19.4-5.8-38.8-11.6-58.2-17.4C-2520.6,3209.9-2500.6,3213.8-2486.8,3238.4z"/>
	<path class="st20" d="M-2611.8,3202.6c-19.8-5.8-39.6-11.7-59.5-17.5C-2646.3,3173.3-2626.4,3178.8-2611.8,3202.6z"/>
	<path class="st62" d="M-6243.8,2160.5c-0.2,3-0.4,5.9-0.5,8.9c-15.4-5.7-30.8-11.4-46.1-17c-2-3.4-1.7-6.5,1.2-9.3
		C-6272.5,2144.7-6255.9,2146.8-6243.8,2160.5z"/>
	<path class="st71" d="M-5345.7,2421.4c-18.8-3.7-38.3-5.1-54.5-17.1C-5378.1,2397.4-5358.6,2398.9-5345.7,2421.4z"/>
	<path class="st72" d="M-4435.5,2681.2c-16.2-5.1-34.7-3.1-48.2-16.2C-4463.4,2657.9-4446.1,2659.6-4435.5,2681.2z"/>
	<path class="st73" d="M-4876.2,2555.6c-15.9-5.6-34.8-2.6-48-16.2C-4904.3,2533-4886.3,2532.4-4876.2,2555.6z"/>
	<path class="st74" d="M-4813.3,2573.5c-15.9-5.6-34.8-2.4-48-16.2C-4841.3,2550.9-4823.3,2550.5-4813.3,2573.5z"/>
	<path class="st74" d="M-4750.3,2591.5c-15.9-5.6-34.9-2.4-48-16.2C-4778.3,2568.9-4760.3,2568.4-4750.3,2591.5z"/>
	<path class="st75" d="M-4687.5,2609.5c-16-5.3-34.5-3.1-47.8-16.1C-4715.4,2587-4697.5,2586.6-4687.5,2609.5z"/>
	<path class="st76" d="M-4624.5,2627.4c-16-5.2-34.5-3.1-47.9-16.1C-4652.4,2604.7-4634.7,2604.9-4624.5,2627.4z"/>
	<path class="st77" d="M-4561.5,2645.3c-16-5.2-34.5-3.1-48-16.1C-4589.4,2622.4-4571.9,2623.1-4561.5,2645.3z"/>
	<path class="st78" d="M-4498.4,2663.3c-16.1-5.1-34.6-3.1-48.1-16.1C-4526.4,2640.2-4508.9,2641.4-4498.4,2663.3z"/>
	<path class="st79" d="M-4183.3,2753.2c-16.5-4.5-34.8-3.8-48.7-16.3C-4211.6,2729.8-4194.1,2731.5-4183.3,2753.2z"/>
	<path class="st80" d="M-4246.3,2735.2c-16.5-4.5-34.8-3.8-48.7-16.3C-4274.5,2711.6-4257.1,2713.7-4246.3,2735.2z"/>
	<path class="st81" d="M-4309.4,2717.2c-16.4-4.6-34.7-3.7-48.4-16.2C-4337.5,2693.6-4320.2,2695.7-4309.4,2717.2z"/>
	<path class="st82" d="M-4372.4,2699.2c-16.4-4.6-34.6-3.7-48.4-16.2C-4400.4,2675.8-4383.1,2677.6-4372.4,2699.2z"/>
	<path class="st63" d="M-2673.8,3184.6c-15.7-5.4-34.3-2.7-46.9-16.8C-2700.6,3161.1-2682.8,3160.5-2673.8,3184.6z"/>
	<path class="st83" d="M-3281.9,3008.1c-15.2,0.2-29.4-3.5-42.2-11.9c20.1-9.7,36.6,0.7,53.4,9.6
		C-3273.7,3009.9-3277.5,3010.5-3281.9,3008.1z"/>
	<path class="st84" d="M-2862.5,3130.7c-15.3-5.1-33.3-2.5-45.5-16C-2888.7,3108.1-2871.2,3107-2862.5,3130.7z"/>
	<path class="st85" d="M-3645.1,2905.8c-17.3-2.4-34.9-3.9-49.7-14.7c4.1-5,9-6,14.6-2.8C-3666.4,2889.9-3650,2886.3-3645.1,2905.8z
		"/>
	<path class="st86" d="M-3680.2,2888.2c-4.9,0.9-9.8,1.9-14.6,2.8c-15-4-30.1-7.9-45.1-11.9
		C-3717.3,2864-3699.5,2881.2-3680.2,2888.2z"/>
	<path class="st87" d="M-3743.7,2878.7c-16.1-5.2-34.4-3.9-47.9-16.6C-3771.5,2855.4-3754,2856.5-3743.7,2878.7z"/>
	<path class="st88" d="M-3806.7,2860.7c-16.1-5.1-34.3-3.9-47.8-16.5C-3834.4,2837.6-3816.9,2838.6-3806.7,2860.7z"/>
	<path class="st84" d="M-2925.3,3112.8c-15.3-5.1-33.3-2.6-45.6-16C-2951.5,3090.1-2934,3089-2925.3,3112.8z"/>
	<path class="st89" d="M-3869.4,2842.8c-16.1-5-34.4-3.9-47.9-16.5C-3897.2,2819.7-3879.6,2820.7-3869.4,2842.8z"/>
	<path class="st90" d="M-6380.6,2126.9c-12.7-0.4-24.9-2.7-35.5-10.3c-2.2-3.5-1.8-6.6,1.2-9.5c14.9,3.5,29.7,7.1,44.6,10.6
		C-6369,2126.2-6370.6,2131.3-6380.6,2126.9z"/>
	<path class="st13" d="M-6317.7,2144.8c-12.8-0.2-24.9-2.7-35.5-10.3c-2.2-3.4-1.7-6.5,1.2-9.4c14.9,3.5,29.7,7.1,44.6,10.6
		C-6306.1,2144.1-6307.6,2149.3-6317.7,2144.8z"/>
	<path class="st91" d="M-5741.1,2298.9c-0.2,2.9-0.4,5.7-0.8,8.6c-14.9-3.9-29.8-7.9-44.7-11.8c0.3-2.8,0.6-5.6,0.8-8.5
		C-5771,2291.1-5756.1,2295-5741.1,2298.9z"/>
	<path class="st92" d="M-3583.2,2923.5c-16.3-3.5-33.9-3-47.4-15.1C-3612.5,2906.2-3593.3,2900.6-3583.2,2923.5z"/>
	<path class="st48" d="M-3170.5,3040.7c-17.3-1.6-34.3-4.5-48.9-15C-3201,3023.8-3181.7,3019.2-3170.5,3040.7z"/>
	<path class="st93" d="M-3044.9,3076.7c-17.2-2.1-34.5-4.2-48.8-15.4C-3074.9,3058.7-3056,3055.5-3044.9,3076.7z"/>
	<path class="st92" d="M-3458,2959.6c-16-4.1-33.6-2.9-46.8-15.3C-3486.9,2942.1-3467.5,2935.7-3458,2959.6z"/>
	<path class="st93" d="M-3107.7,3058.8c-17.2-1.9-34.2-4.4-48.7-15.2C-3138.1,3041.8-3118.8,3037.1-3107.7,3058.8z"/>
	<path class="st92" d="M-3520.7,2941.5c-16.1-3.8-33.7-2.9-47-15.3C-3549.7,2924.1-3530.4,2917.9-3520.7,2941.5z"/>
	<path class="st48" d="M-3281.9,3008.1c3.7-0.8,7.5-1.5,11.2-2.3c15.1-0.2,29.8,0.6,37.7,16.8
		C-3250.4,3021.7-3267,3017.9-3281.9,3008.1z"/>
	<path class="st94" d="M-3332.1,2995.5c-16.1-4-33.9-2.8-47.1-15.5C-3361.1,2977.9-3341.7,2971.8-3332.1,2995.5z"/>
	<path class="st43" d="M-2981.8,3094.7c-17.3-2-34.6-4.2-49-15.4C-3012,3076.5-2993.1,3073.5-2981.8,3094.7z"/>
	<path class="st94" d="M-3395.1,2977.5c-16-4-33.8-2.8-47-15.4C-3424,2959.9-3404.6,2953.6-3395.1,2977.5z"/>
	<path class="st95" d="M-6415,2107.1c-0.4,3.2-0.8,6.3-1.1,9.5c-9.9,0.2-20.4,2.7-27.4-7.6c3.4-3.1,6.9-6.1,10.3-9.2
		C-6425.8,2098.8-6419.5,2100.9-6415,2107.1z"/>
	<path class="st60" d="M-5643,2325.6c-2.5,2.6-5,5.1-7.5,7.7c-9.8-1.4-21.1,2.7-28.3-7.8c0.3-2.9,0.5-5.8,0.6-8.7
		C-5666.5,2319.7-5654.8,2322.6-5643,2325.6z"/>
	<path class="st96" d="M-6317.7,2144.8c3.4-3,6.8-6,10.2-9.1c7.5-1,13.7,1,18.3,7.3c-0.4,3.1-0.8,6.2-1.2,9.3
		C-6300.3,2152.7-6310.8,2155.4-6317.7,2144.8z"/>
	<path class="st97" d="M-6352.1,2125.1c-0.4,3.1-0.8,6.2-1.1,9.4c-9.9,0.2-20.4,2.9-27.4-7.5c3.4-3.1,6.8-6.1,10.3-9.2
		C-6362.9,2116.8-6356.6,2118.8-6352.1,2125.1z"/>
	<path class="st1" d="M575.9,4551.8c-14.6-11.4-8.6-27.6-8.7-41.8c-0.7-83.8,0.4-167.7-1-251.5c-2.2-132.8,0-266.1-10.2-398.3
		c-15-195.8-17.2-393.2-60.5-586.2c-5.7-25.3-3.9-49.1,33.7-42.9c7.3,1.2,14.9,0.2,22.4,0.2c2463.1,0,4926.3,0.1,7389.4-1.1
		c45,0,60.2,12.4,66,56.4c11.6,87.4,50.2,168.4,65.1,255.8c18.4,107.7,31.7,215.7,42.5,324.5c28.6,287.8,16.5,576.1,15,864.1
		c-0.6,121-10.7,242.7-22.9,363.9c-9.4,92.7-16.3,185.7-28.6,278.3c-15.7,118.2-32.3,236-69.5,349.9c-8,24.6-4.6,63.9-20,72.5
		c-22.9,12.9-57.8,5.4-87.6,5.4c-2448.2,0.1-4896.3,0.1-7344.5,0.1c-13.5,0-27-0.4-40.4,0c-17.8,0.6-21.3-4.1-17.6-23.6
		c26.9-142.4,41.6-286.1,51.8-430.9c14.7-208.7,13.1-417.4,18-626.1c1.3-56.2,6.4-112.7,7.1-169.2c21.9,2,18.5,20.5,20.7,33.9
		c30.7,184.9,184.8,282.3,372.8,230.4c95.5-26.4,153.5-96.3,180.4-189.4c19.6-68,23.3-137.8,5.1-208.1
		c-38.3-147.8-143.1-222.4-302.8-213c-130.1,7.6-233.8,107.2-254.3,243C592,4482.8,594.2,4519.5,575.9,4551.8z"/>
	<path class="st1" d="M-1698.6,5800.9c-229.1,0-458.1-0.7-687.2,0.6c-39.2,0.2-54.3-1.7-41.8-50.1c24.6-95.7,31.7-194.7,38.9-293.6
		c12.4-170.5,23-341,28.5-512c1.9-59.3,3.6-118.9,6.6-178.4c12.2-235.9,10.5-472.1,8-708.2c-1.5-141.3-5.4-283.1-18.9-423.7
		c-12.1-125.5-16.7-253.5-67.5-372.7c-11.4-26.7,4.3-32.2,28.8-32.1c151.2,0.8,302.4,0.4,453.6,0.4c314.4,0,628.8,0.3,943.2-0.5
		c31.3-0.1,41.4,4.8,48,41.3c13,71.8,50.2,137.8,64.4,210.6c20,102.7,38.7,205.3,50.8,309.5c23.4,202.6,27.6,405.9,38.2,609.1
		c8.1,155.6-1.2,310.1-6.3,464.4c-8.3,252-30.1,504-95.6,749.7c-15.5,58.4-50,110.1-56.1,171.4c-2.6,25.7-23.2,13.6-35,13.7
		c-115.3,1-230.6,0.6-345.8,0.6C-1462.1,5800.9-1580.3,5800.9-1698.6,5800.9z"/>
	<path class="st98" d="M486.4,3338.7c17.4,51.1,19.4,105.2,23.7,157.7c13.8,169.3,23.3,338.8,30.4,508.7
		c13.5,322.6,7,645.3,6.7,967.9c-0.2,208.7-14.9,417-36,624.6c-2.7,26.2-10.2,51.9-15.5,77.8c-5.4,33.3-28.3,41.2-58,41
		c-80.7-0.6-161.3-4.8-241.8-6.5c-261.6-5.4-523.3-5.9-784.9,0.1c-91,2.1-182.1,6.7-273.2,5.4c-18.5-0.3-48.5,6.5-44.8-30.6
		c17.6-78.9,42-156.1,55.7-236.2c20.1-117.2,34-234.9,44.2-353.3c19.8-229.3,31.2-459,24.3-688.8c-6.2-206.7-13-413.6-41.1-619.3
		c-19.2-140.9-38.8-281.1-83.2-416.8c-1.3-4.1-0.2-8.9-0.2-13.4c-5.5-8.7-5.1-16.5,3.5-23c16.4-9.5,34.6-9.9,52.4-8.3
		c325.6,29.4,652.1,12.9,978.1,16.9c97.3,1.2,194.1-8.6,291-15.5c17.9-1.3,35.8-3.3,53.4,2.6
		C476.7,3332.1,481.7,3335.1,486.4,3338.7z"/>
	<path class="st99" d="M-906.9,5684.7c7.9,29.2,32.1,17.2,48.7,16.7c340.8-11.2,681.6-9.5,1022.4-7.3c92.3,0.6,184.6,9.5,277.2,8.5
		c24.3-0.3,43.1-4.3,54.3-27.3c-9.5,125.4-9.5,125.4-133.3,125.4c-419.9,0-839.8,0-1259.6,0c-51.7,0-57.4-8.3-37.4-56
		C-926.2,5724.5-916.2,5704.7-906.9,5684.7z"/>
	<path class="st100" d="M486.4,3338.7c-3.3,0.1-6.6,0.2-9.8,0.3c-15.9-22.4-38.4-31-65-34.3c-29.8-3.7-59.6-5.4-89.5-5.4
		c-356.2,0.1-712.4,0.3-1068.6-0.2c-57.2-0.1-113.1,11.4-169.8,14.1c-2.8-0.3-5.6-0.7-8.5-1.1c-4.7-7.4-11-14.2-13.8-22.3
		c-13.3-39.4-5.8-49.4,36.3-49.4c187.1-0.1,374.3-0.1,561.4-0.1c253,0,506,1,759-1c39.9-0.3,63.7,5.7,63,50.7
		C480.8,3306.2,484.5,3322.5,486.4,3338.7z"/>
	<path class="st100" d="M-907.1,3339.1c0,5.9,0,11.9-0.1,17.8c-11.6-12.7-17.8-27.6-17.8-45l1.8-0.4
		C-906.3,3314-902.5,3324.1-907.1,3339.1z"/>
	<path class="st101" d="M3729.7,4493.7c99.3,31.8,136.5,85.2,126.7,178.9c-8.8,83.4-79.1,150.7-170.2,156.5
		c-64.1,4.1-128.7,0.6-193.1,1.7c-21,0.4-24.4-9.5-24.3-27.3c0.4-191.6,0.5-383.3-0.2-574.9c-0.1-22.4,8.5-27.7,29-27.4
		c58.4,1,116.8-1.1,175.2,0.8c74.8,2.4,133.2,45.2,150.1,106.6c18.4,67.2-10.8,132.2-78.2,174.2
		C3739.8,4485.8,3735.4,4489.5,3729.7,4493.7z"/>
	<path class="st101" d="M575.9,4551.8c4.7-44.5,4.5-89.4,15.6-133.2c39.9-156.6,160.6-239.5,329.6-225.4
		c139.3,11.6,246.3,127.4,254.4,279.3c6.6,123-15.4,237.2-123.4,315.2c-184.3,133.1-438.9,22.1-468-202.8
		c-1.5-11.5,0.8-24.3-8.8-33.9C575.5,4551,575.9,4551.8,575.9,4551.8z"/>
	<path class="st101" d="M7194.5,4433.5c0-80.1,1.4-155.7-0.7-231.3c-0.8-30,9.3-37.2,38-37.7c30.3-0.5,37.2,9.8,37,38.4
		c-1.1,194.6-0.7,389.1-0.4,583.7c0,24.7,4,45.1-34.5,45.4c-37.1,0.3-43.3-14.7-39.5-44.8c0.7-5.9,0.1-11.9,0.1-17.6
		c-7.1-4.4-11.2-0.8-15,4.2c-47.8,61.9-113.1,76.5-184.9,61.5c-73.3-15.4-114.8-67.2-132.6-137.5c-14.2-55.9-11.3-112.4,0.4-168.9
		C6889.4,4398.8,7059,4303.9,7194.5,4433.5z"/>
	<path class="st101" d="M5392.3,4824.8c-70.2,20.1-114.7-3.2-153.9-53.4c-41-52.6-89.5-99.2-142.1-156.5c0,65.8-1.2,121.7,0.5,177.5
		c0.8,27.3-4.3,40.1-36,39.2c-28.1-0.8-38.4-6.4-38.2-37c1.4-197.3,1.3-394.7,0.1-592.1c-0.2-29,7.5-38,37.2-38
		c30,0,37.4,9.5,37,38.3c-1.5,109.1-0.6,218.3-0.6,327.4c0,14.4,0,28.7,0,55.8c54.6-59,104.7-105.7,145.6-159.6
		c35.8-47.2,78.3-50.2,136.5-42c-61.7,64.4-117.8,125.4-176.9,183.4c-23.6,23.1-25,36.1-0.6,59.9
		C5265.6,4691,5327.2,4757.4,5392.3,4824.8z"/>
	<path class="st101" d="M3069.7,4736.7c6.6,66.6,4.8,70.1-53,89c-50.7,16.6-103.3,20.3-155,9c-100-22-159.1-113.5-152.8-233.6
		c3.7-70.9,23.9-135.2,80.9-183c62.3-52.3,133.5-60.2,206-31.9c67.7,26.4,97.1,85.1,104.3,155.3c8.4,82.4,8.3,82.4-73.9,82.4
		c-68.8,0-137.7,1-206.4-0.5c-26.9-0.6-36.6,3.6-30.4,34.4c20.2,99.5,102.2,141.7,214.8,106.5
		C3026.6,4757.3,3047.6,4746.1,3069.7,4736.7z"/>
	<path class="st101" d="M7739.7,4733.7c19.9,58-7.9,80.4-52.6,93.2c-49.8,14.2-100.5,18.8-150.8,8.4
		c-101.9-21.2-162.1-114.9-154.8-236.3c4.1-67.8,22.9-129.4,75.5-176.5c62-55.5,134.5-65.4,209.1-37.3
		c69.9,26.4,99.6,86.4,106.6,158.4c7.8,80.2,7.7,80.2-71.9,80.2c-70.3,0-140.6,0.7-210.9-0.4c-24.4-0.4-34.3,3.1-28.8,32
		c16.6,86.4,86.9,136.1,174.2,119.2C7671.9,4767.6,7707.2,4756.7,7739.7,4733.7z"/>
	<path class="st101" d="M4914.7,4565.9c0.2,145.8-47.7,225.4-134,258.8c-89.5,34.6-193.8,13.8-252.5-50.5
		c-69-75.4-76.6-228-15.8-314.5c57.4-81.5,183-114.2,282.8-70.3C4886.9,4429.8,4913.5,4509.5,4914.7,4565.9z"/>
	<path class="st101" d="M4384.7,4561.7c-0.3,151.8-50.5,232.5-137.3,264.5c-92.1,34-196.6,10.2-254.8-57.9
		c-65.2-76.3-69.2-228-8.3-311.3c58.1-79.5,180.9-110.8,279.7-67.8C4358.1,4430,4384.1,4511.3,4384.7,4561.7z"/>
	<path class="st102" d="M6444,4455.2c43.5-56.5,89-85.2,151.6-83.4c76.2,2.2,128.5,41,142.1,116.6c19.2,106.6,5.9,214.7,8.1,322.1
		c0.7,33.5-28.3,16.4-44.2,19.6c-21.9,4.4-32.2-4.1-31.7-28.8c1.4-67.2,0.6-134.5,0.4-201.8c-0.1-20.9,0-41.9-1.8-62.7
		c-4.8-54-31-87.6-75.9-99c-42.9-10.9-94,9.5-121.4,49.1c-21.3,30.7-27,65.8-27,102.3c0,70.2-1.8,140.6,0.7,210.7
		c1.2,33.6-17.5,30.3-39.2,31c-22.4,0.7-35.5-1.6-35.1-30.4c1.5-128.5,1.6-257.1,0-385.6c-0.4-28.9,9.7-34.5,36-34.5
		c27.4,0,43.2,5,37.9,36.4C6442.8,4425.4,6444,4434.4,6444,4455.2z"/>
	<path class="st102" d="M2301.9,4454.2c43.7-55.5,90.1-85.1,154.1-82.4c70.4,3,122.5,37.7,137.2,106c23.9,110.6,8.3,223.4,9.9,335.3
		c0.4,31-30,13.6-46.3,17c-20.2,4.2-29.4-4.6-29.1-26.9c1.1-67.3,0.5-134.5,0.3-201.8c-0.1-20.9,0.1-41.9-1.7-62.7
		c-4.5-54.7-29.7-88.1-74.4-100.2c-44.9-12.2-96.5,8.8-124.5,50.7c-19.9,29.8-25.5,63.3-25.5,98.2c-0.2,70.3-1.7,140.6,0.7,210.8
		c1,31-13.2,32.8-37.5,33c-24.9,0.2-37.4-3.1-37-33.4c1.8-125.5,1.1-251.1,0.4-376.7c-0.1-24.6-0.7-42,33.9-41.1
		c30.5,0.8,44.8,7.5,39.5,39.6C2300.8,4427.7,2301.9,4436.1,2301.9,4454.2z"/>
	<path class="st102" d="M1358.5,4454.1c43.2-54.8,89.4-84.9,153.3-82.3c72.2,2.9,125.1,39.3,139.1,109.6
		c21.7,109.4,7.5,220.6,9.1,330.9c0.4,31.8-29.5,14.5-45.7,17.8c-19.3,3.9-30.1-3-29.9-26.1c0.8-83.7,1-167.4-0.6-251.1
		c-0.9-48.5-13.4-92.2-66-111c-67-23.9-139.3,19.2-152.9,96c-15,84.3-4.6,170-5.6,255c-0.3,27.9-5.9,39.1-36.7,38.7
		c-28.9-0.4-38.1-7.7-37.7-37.5c1.6-122.6,1-245.1,0.4-367.7c-0.1-26.9-2.6-46.6,37.5-46.9c42.5-0.2,35.9,23.4,35.7,48.3
		C1358.5,4433.2,1358.5,4438.6,1358.5,4454.1z"/>
	<path class="st102" d="M5724.2,4516.1c0-92.8,0.7-185.6-0.5-278.4c-0.3-25,3-37.7,33.3-37c85.3,2.1,170.6,1.4,255.9,0.3
		c24-0.3,34.4,4.7,34.4,31.7c-0.1,26.5-9.4,32.7-34,32.1c-59.8-1.5-119.7,0.7-179.6-1c-26.1-0.7-33.4,8.5-32.6,33.5
		c1.6,53.8,1.4,107.8,0.1,161.6c-0.6,23.6,7.7,31.1,30.9,30.5c55.3-1.4,110.8,0.7,166.1-0.9c24.5-0.7,30.5,8.8,30.1,31.4
		c-0.4,21.1-3.1,33.3-29,32.5c-52.3-1.7-104.9,1.9-157.1-1.3c-35.5-2.2-42.6,11-41.4,43.3c2.4,62.8,0,125.7,1,188.5
		c0.5,29,2.2,49.2-40.3,49.5c-45.9,0.3-37.4-25.7-37.4-51.4C5724.1,4692.7,5724.2,4604.4,5724.2,4516.1z"/>
	<path class="st102" d="M1870.7,4502.6c0,95.8-1,191.7,0.6,287.5c0.5,29.4-4.7,42.1-38.3,41.8c-31.7-0.3-35.9-12.5-35.8-39.5
		c0.9-196.1,0.9-392.3,0-588.4c-0.1-27,4-39.3,35.8-39.5c33.5-0.3,38.8,12.3,38.3,41.8C1869.7,4304.9,1870.7,4403.7,1870.7,4502.6z"
		/>
	<path class="st102" d="M7953.5,4458.3c27.8-43.7,51.2-72.8,89.7-83.4c60.9-16.7,75-2.7,69.3,72.1c-36.1-15.9-71.7-17.6-103.7,7.2
		c-34.3,26.6-47.1,64.2-51.6,105.6c-8.4,77.5-2.9,155.3-3.2,232.9c-0.1,27.8-5.6,39.3-36.5,38.8c-28.7-0.5-38.2-7.5-37.8-37.4
		c1.7-122.6,1-245.2,0.4-367.7c-0.1-26.8-2.7-46.7,37.4-46.9c42.5-0.2,36,23.3,35.8,48.2C7953.5,4433.4,7953.5,4439,7953.5,4458.3z"
		/>
	<path class="st101" d="M6155.1,4603.6c0-64.3,1.5-128.7-0.7-192.9c-1-29.6,13.9-30.7,35.6-29.6c19.1,1,38-4.6,37.6,27.5
		c-1.5,131.6-1.5,263.3,0,394.9c0.4,32.2-18.8,26.3-37.7,27.3c-21.8,1.2-36.4-0.3-35.4-29.7
		C6156.6,4735.3,6155.1,4669.4,6155.1,4603.6z"/>
	<path class="st101" d="M2013,4603.6c0-64.3,1.5-128.7-0.7-192.9c-1-29.6,13.9-30.7,35.5-29.6c19.1,1,38-4.6,37.6,27.5
		c-1.5,131.6-1.5,263.3,0,394.9c0.4,32.2-18.8,26.3-37.7,27.3c-21.8,1.2-36.4-0.3-35.4-29.7C2014.5,4735.3,2013,4669.4,2013,4603.6z
		"/>
	<path class="st103" d="M2053.5,4264.9c-29.4-1-48-13.5-48.8-42.4c-0.9-30.3,15.9-47.3,46.4-47.6c27.8-0.3,46.7,15.4,48.3,42.1
		C2101,4247,2080.5,4261.5,2053.5,4264.9z"/>
	<path class="st103" d="M6190.9,4264.9c-27.7-2.7-45-16.5-44.2-45.3c0.9-30.6,19.2-46.1,49.3-44.6c27.4,1.3,45.9,17.6,45.4,44.9
		C6240.8,4249.6,6220,4263.4,6190.9,4264.9z"/>
	<path class="st104" d="M-907.1,3339.1c-5.4-9.2-10.7-18.3-16.1-27.5c39.4-31.9,89.1-24.2,132.1-24.5
		c387.2-3.3,774.5-2.1,1161.7-1.5c28,0,56,6.1,84.1,8.8c32.1,3.1,18.2,28,21.7,44.7c-352.6,29.8-706,15.8-1059,17
		C-690.7,3356.4-798.9,3345-907.1,3339.1z"/>
	<path class="st1" d="M3546.4,4650.2c0-7.5-2.4-16,0.4-22.2c13.5-30.2-33.4-86.3,29.2-92.4c130-12.6,191,20.2,201.6,95.6
		c9.5,67.5-23.8,113.3-91.9,130.7c-38.6,9.9-77.2,2.8-115.6,5.7c-21.5,1.6-24.2-10.7-23.9-27.8
		C3546.8,4710,3546.4,4680.1,3546.4,4650.2z"/>
	<path class="st1" d="M3546.3,4367.4c0-4.5-1.5-9.6,0.2-13.3c13.5-28.6-30.9-82,28.9-88.2c110.6-11.5,163.2,15.5,171.7,76.2
		c8.7,62.6-23.8,107.8-88.6,123.2C3555.4,4489.7,3546.3,4481.8,3546.3,4367.4z"/>
	<path class="st1" d="M1096.4,4520c3.5,33.3-3.1,65.8-11.4,97.3c-24.7,93.9-97.3,152.9-193,159.2c-92.5,6.1-173.3-42.4-208.6-131.1
		c-35.8-89.7-35.4-181,6.3-269.2c39.9-84.3,127.9-132,215.8-120.3c98.6,13.1,164.7,76.4,183,175.1
		C1094,4460.5,1099.4,4489.9,1096.4,4520z"/>
	<path class="st1" d="M7194.5,4597.6c0.2,40.5-0.8,80.5-23.6,116.6c-28.3,44.7-69.5,65.8-120.8,61.7c-51.7-4.1-88.9-32.1-107.8-81.6
		c-21.6-56.9-20.6-114.3,0.7-170.6c23.7-63,84.1-98.3,144.8-87.3c64.7,11.7,103.7,59.1,106.7,129.9
		C7194.8,4576.7,7194.5,4587.2,7194.5,4597.6z"/>
	<path class="st1" d="M2907.1,4561c-31.4,0-62.8-0.6-94.2,0.2c-16.9,0.4-23.9-2.9-20.5-22.5c9.2-53.5,68-103.3,125-103.5
		c56.4-0.2,95.9,34.9,108.3,93.9c4.6,22.1,2.5,33.8-24.4,32.3C2970,4559.6,2938.5,4561,2907.1,4561z"/>
	<path class="st1" d="M7579.8,4561c-31.4,0-62.8-0.4-94.2,0.2c-15.9,0.3-24.6-1.3-21.2-21.9c8.6-51.4,64.6-101.2,120.1-104
		c57.8-2.9,99.7,33,113.4,93.3c6.2,27.3-2.5,34.3-28.3,32.8C7639.7,4559.6,7609.7,4561,7579.8,4561z"/>
	<path class="st1" d="M4839.7,4606.4c-3.7,130-81.7,195.1-190.2,162.8c-42.9-12.8-72.8-40-88.9-81.8
		c-21.4-55.6-19.6-111.6,2.4-166.3c23.7-58.8,83.9-92.5,148.2-85.7c64.3,6.8,110.4,48.5,122.5,112.7
		C4837.7,4568.5,4838.1,4589.6,4839.7,4606.4z"/>
	<path class="st1" d="M4309.5,4606.3c-4.4,131-82.5,195.7-190.9,162.7c-42.8-13-72.6-40.5-88.4-82.4c-21.1-55.7-19.3-111.7,3-166.3
		c24-58.7,84.4-92.1,148.7-84.9c64.4,7.2,110,49,121.9,113.4C4307.6,4569.3,4308,4590.4,4309.5,4606.3z"/>
</g>
</svg>
