<svg id="Layer_1" data-name="Layer 1" xmlns="http://www.w3.org/2000/svg" viewBox="0 0 492.93 132.07"><defs><style>.cls-1{fill:#fcfcfc;}.cls-2{fill:#00befe;}.cls-3{fill:#fefefe;}.cls-4{fill:#021117;}.cls-5{fill:#20688c;}.cls-6{fill:#181818;}.cls-7{fill:#171717;}.cls-8{fill:#111;}.cls-9{fill:#666;}.cls-10{fill:#414141;}.cls-11{fill:#281417;}.cls-12{fill:#474747;}.cls-13{fill:#494949;}.cls-14{fill:#5b5b5b;}.cls-15{fill:#484848;}.cls-16{fill:#454545;}.cls-17{fill:#646464;}.cls-18{fill:#5c5c5c;}.cls-19{fill:#4a4a4a;}.cls-20{fill:#424242;}.cls-21{fill:#444;}.cls-22{fill:#606060;}.cls-23{fill:#404040;}.cls-24{fill:#525252;}.cls-25{fill:#535353;}.cls-26{fill:#3e3e3e;}.cls-27{fill:#464646;}.cls-28{fill:#616161;}.cls-29{fill:#282828;}.cls-30{fill:#1a1a1a;}.cls-31{fill:#191919;}.cls-32{fill:#505050;}.cls-33{fill:#1b1b1b;}.cls-34{fill:#2c2c2c;}.cls-35{fill:#161616;}.cls-36{fill:#4b4b4b;}.cls-37{fill:#1e1e1e;}.cls-38{fill:#4c4c4c;}.cls-39{fill:#0d0d0d;}.cls-40{fill:#4d4d4d;}.cls-41{fill:#1d1d1d;}.cls-42{fill:#0f0f0f;}.cls-43{fill:#1c1c1c;}.cls-44{fill:#5f5f5f;}.cls-45{fill:#1f1f1f;}.cls-46{fill:#737373;}.cls-47{fill:#2f2f2f;}.cls-48{fill:#292929;}.cls-49{fill:#363636;}.cls-50{fill:#2d2d2d;}.cls-51{fill:#434343;}.cls-52{fill:#343434;}.cls-53{fill:#656565;}.cls-54{fill:#333;}.cls-55{fill:#fe00fe;}.cls-56{fill:#091216;}.cls-57{fill:#3b81a1;}.cls-58{fill:#3c5874;}.cls-59{fill:#3e5874;}.cls-60{fill:#3a5c7a;}.cls-61{fill:#3e5974;}.cls-62{fill:#3e5975;}.cls-63{fill:#45758d;}.cls-64{fill:#206f96;}.cls-65{fill:#3e7c99;}.cls-66{fill:#3e7a98;}.cls-67{fill:#3d7a97;}.cls-68{fill:#44728d;}.cls-69{fill:#337a9a;}.cls-70{fill:#467e99;}.cls-71{fill:#366475;}.cls-72{fill:#376375;}.cls-73{fill:#41718d;}.cls-74{fill:#36687d;}.cls-75{fill:#46778d;}.cls-76{fill:#45778d;}.cls-77{fill:#40718d;}.cls-78{fill:#45768c;}.cls-79{fill:#3d7790;}.cls-80{fill:#39728a;}.cls-81{fill:#39738b;}.cls-82{fill:#387189;}.cls-83{fill:#3b84a6;}.cls-84{fill:#43718c;}.cls-85{fill:#42718d;}.cls-86{fill:#376274;}.cls-87{fill:#366273;}.cls-88{fill:#366172;}.cls-89{fill:#336479;}.cls-90{fill:#326378;}.cls-91{fill:#35657c;}.cls-92{fill:#46646d;}.cls-93{fill:#46636c;}.cls-94{fill:#46646e;}.cls-95{fill:#46626c;}.cls-96{fill:#02080a;}.cls-97{fill:#095270;}.cls-98{fill:#071a22;}.cls-99{fill:#fe2dac;}.cls-100{fill:#fe01fe;}.cls-101{fill:#f67194;}.cls-102{fill:#fd04fa;}.cls-103{fill:#fe03fb;}.cls-104{fill:#9e9799;}.cls-105{fill:#c49483;}.cls-106{fill:#8db187;}.cls-107{fill:#01befe;}.cls-108{fill:#01befd;}</style></defs><title>LogoV2</title><path class="cls-1" d="M331.39,264q122.56,0,245.12,0c1.1,0,1.35.25,1.35,1.35q0,64.69,0,129.38c0,1.1-.25,1.35-1.35,1.35q-245.12,0-490.23,0c-1.1,0-1.35-.25-1.35-1.35q0-64.69,0-129.38c0-1.1.25-1.35,1.35-1.35Q208.83,264,331.39,264Z" transform="translate(-84.93 -263.93)"/><path class="cls-2" d="M89.31,267.7a2.48,2.48,0,0,1-1.55-.51c-.43-.16-.29-.42-.12-.68a10.49,10.49,0,0,1,1.9-.06H426.91a33.29,33.29,0,0,0,3.64-.1,82,82,0,0,1,8.56,2.18c3.6,1,7.16,2.06,10.74,3.09q8.58,2.46,17.17,4.9c5.73,1.61,11.47,3.18,17.19,4.79s11.44,3.29,17.17,4.9,11.66,3.2,17.48,4.84c5.59,1.58,11.15,3.24,16.74,4.81,9.35,2.62,18.72,5.18,28.08,7.77,1.58.44,3.16.85,4.72,1.33.39.12,1.06.12.92.87s-.73.72-1.28.76c-.73,0-1.47,0-2.2,0H327.6c-1,0-2,0-2.93,0a23.86,23.86,0,0,1-2.48.05H279a17.24,17.24,0,0,1-1.9,0q-23.87,0-47.73,0c-.52,0-.84.36-1.24.6a1.32,1.32,0,0,1-1.23,0c-.4-.27-.79-.6-1.33-.46a1.18,1.18,0,0,1-.88-.23,1.4,1.4,0,0,0-1.16-.35,1.21,1.21,0,0,1-.89-.23,1.41,1.41,0,0,0-1.17-.36,1.21,1.21,0,0,1-.89-.23,1.41,1.41,0,0,0-1.17-.36,1.21,1.21,0,0,1-.89-.23,1.41,1.41,0,0,0-1.17-.36,1.23,1.23,0,0,1-.9-.23,1.65,1.65,0,0,0-1.44-.32c-4.23-.94-8.34-2.3-12.51-3.44-3.7-1-7.44-1.92-11-3.26a2.45,2.45,0,0,0-1.6-.52,10.06,10.06,0,0,1-2.52-.71,2.65,2.65,0,0,0-1.56-.47,2.26,2.26,0,0,1-.8-.18,2,2,0,0,0-1.28-.41,2.15,2.15,0,0,1-.78-.18,1.93,1.93,0,0,0-1.27-.41,2.17,2.17,0,0,1-.77-.17,2.08,2.08,0,0,0-1.25-.44,2.16,2.16,0,0,1-.57-.14,2.77,2.77,0,0,0-1.48-.45,2.13,2.13,0,0,1-.58-.14,2.75,2.75,0,0,0-1.47-.45,2.11,2.11,0,0,1-.57-.14,2.71,2.71,0,0,0-1.43-.45,2.12,2.12,0,0,1-.56-.12,3.68,3.68,0,0,0-1.36-.54,2.86,2.86,0,0,1-.36-.11,2.68,2.68,0,0,0-1.46-.22,2.89,2.89,0,0,1-1.31-.35,1.77,1.77,0,0,0-1.23-.39,2.09,2.09,0,0,1-.76-.17,1.89,1.89,0,0,0-1.22-.41,2.35,2.35,0,0,1-.74-.14,3.22,3.22,0,0,0-1.13-.54l-.36-.12a2.67,2.67,0,0,0-1.35-.23,1.11,1.11,0,0,1-.71-.23,1.82,1.82,0,0,0-1.36-.36,1.18,1.18,0,0,1-.71-.23,1.93,1.93,0,0,0-1.45-.33,6.29,6.29,0,0,1-2.12-.62,2.22,2.22,0,0,0-1.8-.51,19.18,19.18,0,0,1-4.5-1.34,2.17,2.17,0,0,0-1.35-.34,2.16,2.16,0,0,1-.6-.14,6.84,6.84,0,0,0-1.68-.72c-.65-.23-1.33-.36-2-.54a9.8,9.8,0,0,0-1.83-.35,2.35,2.35,0,0,1-.6-.14,3.44,3.44,0,0,0-1.83-.62,1.42,1.42,0,0,1-.39-.08,3.15,3.15,0,0,0-1.66-.51,1.41,1.41,0,0,1-.39-.08,3.14,3.14,0,0,0-1.69-.51,1.39,1.39,0,0,1-.39-.08,3.36,3.36,0,0,0-2.25-.52c-4.36-1.12-8.67-2.41-13-3.7a1.67,1.67,0,0,0-1.42-.43,1.79,1.79,0,0,1-.91-.31,2,2,0,0,0-1.41-.4,1.71,1.71,0,0,1-.55-.16A1.38,1.38,0,0,0,114,275a1.68,1.68,0,0,1-.9-.3,1.24,1.24,0,0,0-1.17-.28,1.68,1.68,0,0,1-.88-.3,1.25,1.25,0,0,0-1.18-.28,1.73,1.73,0,0,1-.89-.31,2.53,2.53,0,0,0-1.21-.52c-.66-.18-1.32-.33-2-.54s-1.36-.35-2-.58-1.38-.36-2.05-.59-1.37-.36-2-.59-1.36-.36-2-.58a4.52,4.52,0,0,0-2.23-.33,41.3,41.3,0,0,1-5-1.4C90,268.21,89.91,267.52,89.31,267.7Z" transform="translate(-84.93 -263.93)"/><path class="cls-1" d="M155.3,286.48l2.46.6c.47.17,1.06,0,1.43.49l.62.1c.48.17,1.06,0,1.44.49l.61.09a7.24,7.24,0,0,1,1.44.35h0c.38.25.92.09,1.24.49l.72.11c.43.2,1,.08,1.33.48l.73.11c.43.2,1,.08,1.32.47l1.43.35a6.61,6.61,0,0,1,1.46.35h0a9.27,9.27,0,0,1,1.49.49l.45.11a6.77,6.77,0,0,1,1.6.48l.45.11a6.94,6.94,0,0,1,1.6.47l.42.08a12.47,12.47,0,0,1,1.62.49l.44.1c.42.25,1,.07,1.35.49l.69.09c.42.25,1,.07,1.36.49l.69.09c.42.25,1,.07,1.36.49l.69.09a13.76,13.76,0,0,1,1.62.48l2.49.69a14.13,14.13,0,0,1,1.62.48c4.37,1.52,8.86,2.61,13.29,3.9,3.57,1,7.17,2,10.75,3,.36.24.92-.05,1.19.44l.86.15c.36.24.92-.05,1.19.43l.86.15c.36.24.92,0,1.19.43l.87.15c.36.24.93-.05,1.19.45l.85.13c.36.25.93,0,1.2.45l.85.13c.36.25.93,0,1.2.45a1.51,1.51,0,0,0,1,.13c.94.16.82,1.09,1.22,1.65.13.33.22.67.33,1s.18.8.31,1.2.22.94.34,1.41a10.71,10.71,0,0,0,.22,1.67,3.19,3.19,0,0,1,.1.43,11.88,11.88,0,0,0,.27,2.46,18.51,18.51,0,0,1,.12,2.38,7.36,7.36,0,0,0,.2,1c.16,1.3,0,2.62.12,3.92.52,2.46.08,5,.28,7.44.32,3.94.26,7.88.28,11.83,0,5.5-.29,11-.36,16.5-.06,4.17-.39,8.35-.53,12.53a7.36,7.36,0,0,1-.25,1.44c-.11,1.21,0,2.43-.12,3.64,0,.33-.19.63-.2,1a23.6,23.6,0,0,1-.12,2.63,5,5,0,0,0-.18.93,11.54,11.54,0,0,1-.28,2.84,10.76,10.76,0,0,1-.14,1.7c-.26,1.11-.48,2.23-.78,3.32-.1.36-.08.91-.74.76h-.15a2.82,2.82,0,0,1-1-.11c-.29-.19-.64-.2-.94-.37a8.15,8.15,0,0,1-2-.69,2.07,2.07,0,0,1-1.19-.29,18.38,18.38,0,0,1-2.27-.7c-.38-.1-.76-.23-1.14-.33a6.16,6.16,0,0,1-.72-.29c-.33-.2-.78-.08-1.06-.4l-.4,0c-.35.14-.59-.18-.91-.21-.48-.18-1-.34-1.46-.53-.32-.1-.65-.15-1-.24a12.93,12.93,0,0,0-2.51-.81c-.46-.13-.91-.3-1.37-.42-.25-.1-.52-.14-.78-.22a5.34,5.34,0,0,0-2.27-.51l0,0a3.73,3.73,0,0,0-1.7-.77c-.24-.1-.5-.14-.74-.21s-.77-.18-1.05-.49h-1.15a4.36,4.36,0,0,0-1.69-.78c-.48-.18-1-.25-1.46-.42l-.11-.13c-.35-.44-1,0-1.34-.46h0a13.35,13.35,0,0,1-1.71-.46c-.5-.17-1-.26-1.51-.43-.64-.46-1.47-.24-2.14-.57a3.3,3.3,0,0,0-1.1-.48c-.45-.18-.94-.2-1.37-.42l-1.21-.27a4,4,0,0,0-1.09-.45c-.34-.07-.64-.23-1-.31s-1-.21-1.42-.44a2.62,2.62,0,0,0-1.66-.27c-.2-.26-.53-.3-.79-.46-.64-.24-1.25-.65-2-.41-.5-.68-1.22-.62-1.94-.6-.2-.27-.54-.3-.8-.47a7.59,7.59,0,0,0-1.71-.56c-.55-.14-1.1-.28-1.64-.45h-.3c-.29-.28-.72-.25-1-.45a7.75,7.75,0,0,0-1.72-.56c-.55-.14-1.1-.28-1.64-.45l-1.23-.33a9.62,9.62,0,0,0-2.09-.78c-.64-.36-1.44-.23-2.05-.65l-.56,0c-.51-.42-1.26-.37-1.75-.86l-.08,0a10.53,10.53,0,0,1-2.51-.6h-.24c-.52-.48-1.33-.36-1.82-.9l-.13,0c-.57,0-1.06-.33-1.62-.3s-.78-.29-1.2-.36c-.54-.31-1.23-.32-1.69-.8h-.19c-.56,0-1.05-.33-1.62-.3s-.78-.29-1.19-.36c-.54-.31-1.22-.32-1.68-.8h-.21c-.56,0-1-.33-1.61-.3s-.77-.29-1.18-.36c-.53-.31-1.21-.32-1.66-.79l-.25,0a8.2,8.2,0,0,1-1.81-.45c-.59-.2-1.27-.14-1.71-.69l-.28,0a4.77,4.77,0,0,1-1.57-.43c-.44-.18-.95-.1-1.38-.3a3,3,0,0,1-1.44-.69l-.31,0a3.08,3.08,0,0,1-1-.19c-.61-.14-1.14-.59-1.82-.38h-.21c-.42-.41-1.09-.4-1.47-.88h-.24a3.1,3.1,0,0,1-.95-.19c-.6-.14-1.14-.59-1.82-.38l-1.91-.89a3,3,0,0,1-1-.19c-.61-.14-1.15-.59-1.83-.39l-1.92-.89a3.27,3.27,0,0,1-1-.2,11.22,11.22,0,0,1-1.73-.68,2.81,2.81,0,0,1-2-.58,3.29,3.29,0,0,1-1-.2,11.29,11.29,0,0,1-1.73-.68,2.81,2.81,0,0,1-2-.58,3.22,3.22,0,0,1-1-.2,11.72,11.72,0,0,0-1.74-.54A5.73,5.73,0,0,1,107,353c-.4-.09-.78-.24-1.18-.35a12.45,12.45,0,0,0-1.76-.55,5.84,5.84,0,0,1-1.76-.57c-.72-.08-1.34-.67-2.12-.44-.33-.25-.61-.66-1.1-.31a6.65,6.65,0,0,0-1.54-.74c-.51-.14-1-.32-1.51-.49a9.29,9.29,0,0,1-1.35-.39,5.39,5.39,0,0,0-1.18-.34c-.55-.18-1.09-.41-1.65-.57s-1.45-.3-2-.88q-.06-39.14,0-78.26c0-.39-.23-.91.37-1.13l5.18,1.5c.8-.22,1.45.31,2.17.44a15.57,15.57,0,0,1,2.13.6,10.91,10.91,0,0,1,2.08.59,12.37,12.37,0,0,1,2.06.59,12.27,12.27,0,0,1,2.05.59,11.48,11.48,0,0,1,2,.58,2.31,2.31,0,0,1,1.21.41l.63.3a1.56,1.56,0,0,1,1.43.29l.62.3a1.54,1.54,0,0,1,1.42.28l.63.3a1.56,1.56,0,0,1,1.43.29l.33,0c.56.21,1.21.14,1.71.55l.63.3a1.53,1.53,0,0,1,1.35.21L132.74,280c.79-.17,1.4.35,2.1.54l.3.06a5.41,5.41,0,0,1,1.76.52l.3.06a5.52,5.52,0,0,1,1.76.52l.3.06a5.66,5.66,0,0,1,1.75.52l.54.14a16.47,16.47,0,0,0,2.05.44,6.92,6.92,0,0,0,2,.57c.48.28,1,.36,1.55.6l.53.14a10.06,10.06,0,0,0,1.44.23,21.15,21.15,0,0,0,4.71,1.48C154.29,286.22,155,285.88,155.3,286.48Z" transform="translate(-84.93 -263.93)"/><path class="cls-3" d="M330.22,391.63c-.32,1.68-1.69,2.48-3,3.14a8.09,8.09,0,0,1-3.64.92c-14.93,0-29.87.05-44.8-.05-3.27,0-5.39-1.06-6.37-4,.85-.81,1.92-.38,2.89-.48.52-.05,1.05,0,1.58,0,2.29-.1,4.58,0,6.87,0h39.35a16.42,16.42,0,0,1,1.75,0c1.25,0,2.51,0,3.76,0C329.2,391.15,329.8,391.1,330.22,391.63Z" transform="translate(-84.93 -263.93)"/><path class="cls-4" d="M330.22,391.63l-5.29-.1a.68.68,0,0,1,.14-1,6.11,6.11,0,0,1,2.74-.28H515.36c16.91,0,33.82,0,50.73,0,1.82,0,3.32-.09,3.57-2.34a1.21,1.21,0,0,1,.49-.71.56.56,0,0,1,.56,0c-.19,1.31-.69,2.61-.39,4,.11.49-.18.44-.46.45-.44,0-.88,0-1.32,0H331.83C331.29,391.58,330.75,391.61,330.22,391.63Z" transform="translate(-84.93 -263.93)"/><path class="cls-5" d="M430.55,266.35c-.55.49-1.22.23-1.82.23l-339.21,0-1.91,0a.18.18,0,0,1-.1-.17q0-.11,0-.11c.54,0,1.07,0,1.61,0q168.81,0,337.62,0C428,266.32,429.31,265.89,430.55,266.35Z" transform="translate(-84.93 -263.93)"/><path d="M324.55,306.15c.63,0,1.27-.06,1.9-.06H567.33c.66,0,1.37.22,2-.24,2-.36.66,1.27,1.08,1.85-.24.47.29,1.14-.4,1.49-.58-.4-.44-1.09-.66-1.63a1.41,1.41,0,0,0-1.39-.63H327.66a6.75,6.75,0,0,1-2.89-.24A.52.52,0,0,1,324.55,306.15Z" transform="translate(-84.93 -263.93)"/><path d="M276.83,391.52l-4.41.1-20.79,0h-22c-.67,0-1.56.28-1.61-.89.75-1.27.73-2.77,1.22-4.12l.28,0a1,1,0,0,1,.32.46,4,4,0,0,1-.11,2c-.17.83.16,1.19,1,1.21l1.61,0h41.76a5.56,5.56,0,0,1,2.6.28A.66.66,0,0,1,276.83,391.52Z" transform="translate(-84.93 -263.93)"/><path d="M90.18,268c-.46.39-.23.91-.23,1.37q0,38.46,0,76.93c0,.44-.26,1,.26,1.34q.11.08.08.18t-.06.09c-.2-.09-.41.52-.6,0a.5.5,0,0,1,0-.64q0-39.2,0-78.39c0-.39.25-.9-.33-1.15C89.71,267.47,90,267.42,90.18,268Z" transform="translate(-84.93 -263.93)"/><path class="cls-6" d="M574.34,332.53a13.26,13.26,0,0,1,.28,1.72c.26,7.8.27,15.61,0,23.41-.24,6.07-.74,12.13-1.44,18.17a3.9,3.9,0,0,1-.29.82,1.23,1.23,0,0,1-.51-.64,2.21,2.21,0,0,1-.12-.41,3.45,3.45,0,0,1,.27-2.13c.46-.83.13-1.76.33-2.63a3.61,3.61,0,0,1,.1-.48c.31-4.11.72-8.2.73-12.33a3.48,3.48,0,0,1,.1-.54,7,7,0,0,0,.12-2c0-7.4-.06-14.79,0-22.19A1.07,1.07,0,0,1,574.34,332.53Z" transform="translate(-84.93 -263.93)"/><path class="cls-7" d="M570.7,387.17h0c-.73-.36-.47-1-.35-1.51.63-2.79,1.09-5.61,1.52-8.43.07-.47,0-1.14.73-1.21l0,.07a8.91,8.91,0,0,1,.09,2.07,2.68,2.68,0,0,0-.22,1.94l-.19.32a2,2,0,0,0-.1,1.44C571.57,383.61,571.8,385.57,570.7,387.17Z" transform="translate(-84.93 -263.93)"/><path class="cls-8" d="M574.34,332.53l-.1.63a.41.41,0,0,1-.45.09c-.89-1.36-.36-2.84-.39-4.28a1.22,1.22,0,0,1,.21-.44.32.32,0,0,1,.43,0C574.65,329.8,574.22,331.18,574.34,332.53Z" transform="translate(-84.93 -263.93)"/><path d="M573.47,322.53c.59.95.06,2.07.45,3-.18.93.09,1.89-.15,2.83l0,.09c-.83-.14-.67-.84-.72-1.37a11.17,11.17,0,0,1,0-1.89C573.16,324.33,572.71,323.32,573.47,322.53Z" transform="translate(-84.93 -263.93)"/><path class="cls-9" d="M211.4,385.44a8.75,8.75,0,0,1,2.67.84c-.13.27-.39.31-.64.35l-1.75-.61C211.67,385.78,211.23,385.75,211.4,385.44Z" transform="translate(-84.93 -263.93)"/><path d="M573.47,322.53l0,2.67c-.75,0-.63-.57-.7-1a7.49,7.49,0,0,1,0-1.57c.12-.7-.16-1.48.46-2.07C573.8,321.15,573.29,321.89,573.47,322.53Z" transform="translate(-84.93 -263.93)"/><path class="cls-10" d="M220.5,388.32a4.12,4.12,0,0,1,2.33.9,3.3,3.3,0,0,1-2.35-.56Q220.25,388.49,220.5,388.32Z" transform="translate(-84.93 -263.93)"/><path class="cls-11" d="M87.56,266.35a.73.73,0,0,0,.06.28l.13.57a2.31,2.31,0,0,1-1.9-.8A4,4,0,0,1,87.56,266.35Z" transform="translate(-84.93 -263.93)"/><path class="cls-12" d="M159.72,369.56a3.57,3.57,0,0,1,2.51.6A2.12,2.12,0,0,1,159.72,369.56Z" transform="translate(-84.93 -263.93)"/><path class="cls-13" d="M164.62,371a3.29,3.29,0,0,1,2.21.56q.15.11.09.2c0,.06-.08.09-.11.09C166.09,371.55,165,372.07,164.62,371Z" transform="translate(-84.93 -263.93)"/><path class="cls-9" d="M207,384.53a2.26,2.26,0,0,1,2.37.29c-.13.26-.38.3-.63.34Z" transform="translate(-84.93 -263.93)"/><path d="M573.16,320.58v2c-1.16-.32-.55-1.3-.74-2,.09-.61-.1-1.28.46-1.77C573.51,319.31,573,320,573.16,320.58Z" transform="translate(-84.93 -263.93)"/><path class="cls-14" d="M166.8,371.88l0-.29c.68.21,1.59-.07,1.93.88A3.29,3.29,0,0,1,166.8,371.88Z" transform="translate(-84.93 -263.93)"/><path class="cls-15" d="M139.9,363.15c.58.16,1.27.08,1.66.69l0,.07C140.87,364,140.1,364.21,139.9,363.15Z" transform="translate(-84.93 -263.93)"/><path d="M572.87,318.81l0,1.61c-.71-.29-.71-.29-.74-1.89.08-.54,0-1.13.47-1.53C573.16,317.53,572.74,318.21,572.87,318.81Z" transform="translate(-84.93 -263.93)"/><path class="cls-16" d="M141.59,363.91l0-.07a2.24,2.24,0,0,1,1.87.44A1.48,1.48,0,0,1,141.59,363.91Z" transform="translate(-84.93 -263.93)"/><path class="cls-17" d="M180.76,376.33c.84-.8,1.49.05,2.21.25-.12.26-.39.18-.59.25Z" transform="translate(-84.93 -263.93)"/><path class="cls-18" d="M157.66,368.67c.62.28,1.54-.05,1.82.9C158.77,369.48,157.94,369.62,157.66,368.67Z" transform="translate(-84.93 -263.93)"/><path class="cls-18" d="M162.31,370.13c.6.26,1.47,0,1.75.86C163.39,370.87,162.57,371.09,162.31,370.13Z" transform="translate(-84.93 -263.93)"/><path class="cls-19" d="M100.14,351.1c.82-.68,1.43.13,2.13.29a.18.18,0,0,1,.07.2q0,.1-.07.1A7.12,7.12,0,0,1,100.14,351.1Z" transform="translate(-84.93 -263.93)"/><path class="cls-20" d="M102.26,351.69v-.29a3.72,3.72,0,0,1,1.76.6q.15.08.1.15c0,.05-.07.08-.1.08A1.73,1.73,0,0,1,102.26,351.69Z" transform="translate(-84.93 -263.93)"/><path class="cls-20" d="M107,352.87a3.53,3.53,0,0,1,1.76.6q.15.07.1.15s-.07.07-.1.07a1.7,1.7,0,0,1-1.76-.54q-.15-.1-.1-.19C106.89,352.9,106.92,352.87,107,352.87Z" transform="translate(-84.93 -263.93)"/><path class="cls-16" d="M130.45,360.19c.53.22,1.39-.11,1.47.88C131.21,361.13,130.63,361,130.45,360.19Z" transform="translate(-84.93 -263.93)"/><path class="cls-16" d="M143.68,364.31a4.36,4.36,0,0,1,1.72.59c0,.26,0,.44-.33.28C144.65,364.81,143.74,365.24,143.68,364.31Z" transform="translate(-84.93 -263.93)"/><path d="M570.21,309c0-.44-.14-.9.18-1.3l.13,1.4c.11.53.29,1.07-.11,1.56C569.6,310.19,569.85,309.59,570.21,309Z" transform="translate(-84.93 -263.93)"/><path class="cls-21" d="M196.14,380.72a2.25,2.25,0,0,1,1.59.59c-.63.49-1.1,0-1.59-.28q-.15-.1-.1-.21T196.14,380.72Z" transform="translate(-84.93 -263.93)"/><path class="cls-22" d="M176.49,374.55a3.69,3.69,0,0,1,1.78.58c-.12.24-.37.17-.56.23-.42-.12-.9-.07-1.23-.44Q176.25,374.72,176.49,374.55Z" transform="translate(-84.93 -263.93)"/><path class="cls-23" d="M90.23,347.89a.3.3,0,0,1,0-.27l1.78.55a.19.19,0,0,1,.07.2q0,.1-.07.1A3,3,0,0,1,90.23,347.89Z" transform="translate(-84.93 -263.93)"/><path class="cls-24" d="M148.34,365.76a4.3,4.3,0,0,1,1.75.6c0,.27,0,.45-.33.29C149.32,366.29,148.4,366.71,148.34,365.76Z" transform="translate(-84.93 -263.93)"/><path class="cls-25" d="M153,367.22a4.49,4.49,0,0,1,1.76.6c0,.27,0,.45-.33.29C154,367.77,153.09,368.17,153,367.22Z" transform="translate(-84.93 -263.93)"/><path class="cls-20" d="M97.57,349.93c.52.23,1.41-.16,1.47.86-.63.16-1-.21-1.47-.57q-.15-.1-.1-.2C97.5,350,97.54,349.93,97.57,349.93Z" transform="translate(-84.93 -263.93)"/><path class="cls-26" d="M211.4,385.44c-.08.28.64.17.27.58a4.82,4.82,0,0,1-1.75-.69l-.07-.12.1-.1C210.49,384.94,210.91,385.31,211.4,385.44Z" transform="translate(-84.93 -263.93)"/><path d="M572,314.37c.53.39.16,1.06.47,1.52-.24.37.25,1-.4,1.21-.58-.39-.48-1-.51-1.57A1.41,1.41,0,0,1,572,314.37Z" transform="translate(-84.93 -263.93)"/><path class="cls-26" d="M205.25,383.63c.67.14,1.57-.15,1.76.92a4.72,4.72,0,0,1-1.79-.7l-.07-.12Z" transform="translate(-84.93 -263.93)"/><path class="cls-27" d="M135.21,361.69a2.76,2.76,0,0,1,1.4.46.28.28,0,0,1,0,.42C135.93,362.56,135.33,362.5,135.21,361.69Z" transform="translate(-84.93 -263.93)"/><path d="M573.77,328.4a6.89,6.89,0,0,1,.15-2.83,13.36,13.36,0,0,1,.11,2.91A1.05,1.05,0,0,1,573.77,328.4Z" transform="translate(-84.93 -263.93)"/><path class="cls-28" d="M171.79,373.09a3.76,3.76,0,0,1,1.78.57c-.12.24-.37.17-.56.23-.42-.13-.9-.07-1.23-.45Q171.55,373.26,171.79,373.09Z" transform="translate(-84.93 -263.93)"/><path class="cls-20" d="M224,389.52a4,4,0,0,1,2.11.55c-.14.27-.44.12-.63.25C225,390.08,224.24,390.29,224,389.52Z" transform="translate(-84.93 -263.93)"/><path class="cls-21" d="M151.24,366.69a2.93,2.93,0,0,1,1.58.53c-.55.56-1.05-.12-1.58-.07A.29.29,0,0,1,151.24,366.69Z" transform="translate(-84.93 -263.93)"/><path class="cls-16" d="M155.94,368.16a3,3,0,0,1,1.59.53c-.56.57-1.06-.12-1.59-.07A.29.29,0,0,1,155.94,368.16Z" transform="translate(-84.93 -263.93)"/><path class="cls-29" d="M136.57,362.57l0-.42,1.44.41a.2.2,0,0,1,.07.21q0,.11-.07.11C137.57,362.68,137,363.05,136.57,362.57Z" transform="translate(-84.93 -263.93)"/><path class="cls-30" d="M151.24,366.69v.46a2.4,2.4,0,0,1-1.49-.51l.33-.29Z" transform="translate(-84.93 -263.93)"/><path class="cls-16" d="M146.55,365.23a3,3,0,0,1,1.58.53c-.55.56-1-.13-1.58-.06A.29.29,0,0,1,146.55,365.23Z" transform="translate(-84.93 -263.93)"/><path class="cls-31" d="M146.55,365.23v.46a2.35,2.35,0,0,1-1.48-.51l.33-.28Z" transform="translate(-84.93 -263.93)"/><path class="cls-27" d="M118.09,356.36a4.43,4.43,0,0,1,1.84.56c-.05.18-.23.19-.35.27C119.08,356.92,118.31,357.14,118.09,356.36Z" transform="translate(-84.93 -263.93)"/><path d="M570.5,310.45l0-1.36c.58.38.08,1.09.46,1.53-.21.27.21.84-.44.88A.67.67,0,0,1,570.5,310.45Z" transform="translate(-84.93 -263.93)"/><path class="cls-32" d="M138,362.87v-.32a2.75,2.75,0,0,1,1.56.56C139,363.52,138.53,363.19,138,362.87Z" transform="translate(-84.93 -263.93)"/><path d="M572.26,316.9c0-.35-.1-.72.2-1l.12,1.11,0,1.46C571.57,318.11,572,317.5,572.26,316.9Z" transform="translate(-84.93 -263.93)"/><path class="cls-33" d="M155.94,368.16v.46a2.42,2.42,0,0,1-1.49-.51l.33-.29Z" transform="translate(-84.93 -263.93)"/><path class="cls-27" d="M104,352.22q0-.11,0-.23a3.65,3.65,0,0,1,1.82.53c0,.18-.22.19-.35.27C105,352.59,104.43,352.62,104,352.22Z" transform="translate(-84.93 -263.93)"/><path class="cls-27" d="M122.74,358.14c.73-.66,1.26.12,1.89.25-.05.18-.23.2-.36.28Z" transform="translate(-84.93 -263.93)"/><path class="cls-27" d="M127.44,359.61c.73-.66,1.27.12,1.89.24-.05.18-.23.2-.36.28Z" transform="translate(-84.93 -263.93)"/><path class="cls-27" d="M108.72,353.69q0-.11,0-.22a3.62,3.62,0,0,1,1.82.53c0,.18-.22.19-.35.27C109.71,354.06,109.13,354.09,108.72,353.69Z" transform="translate(-84.93 -263.93)"/><path class="cls-16" d="M200.84,382.18c.57.18,1.42-.08,1.52.9a3.54,3.54,0,0,1-1.52-.58Q200.6,382.33,200.84,382.18Z" transform="translate(-84.93 -263.93)"/><path class="cls-27" d="M132.12,361.07c.73-.67,1.27.12,1.9.24-.05.18-.24.2-.37.28Z" transform="translate(-84.93 -263.93)"/><path class="cls-34" d="M213.43,386.62c.12-.3.41-.27.64-.35l.86.3a.23.23,0,0,1,.07.24q0,.12-.08.12C214.43,386.75,213.85,387.09,213.43,386.62Z" transform="translate(-84.93 -263.93)"/><path class="cls-35" d="M572.49,378.49l.11-2.38c.25.11.23.34.26.55,0,.69.24,1.43-.29,2l-.13-.07Z" transform="translate(-84.93 -263.93)"/><path class="cls-36" d="M97.57,349.93v.29a3.47,3.47,0,0,1-1.82-.56c0-.18.2-.2.34-.25Z" transform="translate(-84.93 -263.93)"/><path class="cls-27" d="M113.4,354.89a4.39,4.39,0,0,1,1.84.56c0,.18-.22.19-.35.27C114.39,355.45,113.61,355.68,113.4,354.89Z" transform="translate(-84.93 -263.93)"/><path class="cls-37" d="M209.94,385.1a.19.19,0,0,0,0,.22c-.39-.09-.86.35-1.2-.16.09-.34.4-.26.63-.34Z" transform="translate(-84.93 -263.93)"/><path class="cls-38" d="M88.5,347.47c-.39-.19-.9-.07-1.21-.45q-.24-.17,0-.32a3.54,3.54,0,0,1,1.54.52C88.81,347.41,88.64,347.43,88.5,347.47Z" transform="translate(-84.93 -263.93)"/><path class="cls-39" d="M173,373.89l.56-.23c.32.13.83,0,.81.58C173.91,374.17,173.37,374.39,173,373.89Z" transform="translate(-84.93 -263.93)"/><path class="cls-40" d="M92,348.48v-.3a3.41,3.41,0,0,1,1.55.51c0,.19-.21.2-.35.25C92.81,348.74,92.29,348.88,92,348.48Z" transform="translate(-84.93 -263.93)"/><path class="cls-19" d="M214.91,386.93v-.36a3,3,0,0,1,1.56.53c0,.21-.22.22-.37.29C215.72,387.22,215.23,387.31,214.91,386.93Z" transform="translate(-84.93 -263.93)"/><path class="cls-41" d="M205.25,383.63a.19.19,0,0,0,0,.22c-.39-.09-.86.36-1.19-.15,0-.54.26-.52.63-.34Z" transform="translate(-84.93 -263.93)"/><path d="M571.41,312.33c.55.26.16.87.47,1.22-.21.27.19.81-.41.92-.48-.31-.46-.8-.47-1.28A1.07,1.07,0,0,1,571.41,312.33Z" transform="translate(-84.93 -263.93)"/><path class="cls-42" d="M227,390.38l.93.31c-.42.19-.83.54-1.26,0C226.57,390.43,226.65,390.28,227,390.38Z" transform="translate(-84.93 -263.93)"/><path class="cls-39" d="M177.71,375.36l.56-.23c.28.11.79,0,.56.6C178.43,375.69,178,375.76,177.71,375.36Z" transform="translate(-84.93 -263.93)"/><path class="cls-33" d="M185.2,377.47a2.12,2.12,0,0,1,1.56.34q.1.08.07.16t-.07.08A1.84,1.84,0,0,1,185.2,377.47Z" transform="translate(-84.93 -263.93)"/><path class="cls-33" d="M189.89,378.94a2.07,2.07,0,0,1,1.56.34q.1.08.07.16t-.07.08A1.83,1.83,0,0,1,189.89,378.94Z" transform="translate(-84.93 -263.93)"/><path class="cls-43" d="M196.14,380.72V381a2.35,2.35,0,0,1-1.63-.61A2.2,2.2,0,0,1,196.14,380.72Z" transform="translate(-84.93 -263.93)"/><path class="cls-44" d="M197.76,381.29a1.3,1.3,0,0,1,1.34.46C198.57,381.84,198,382.05,197.76,381.29Z" transform="translate(-84.93 -263.93)"/><path class="cls-43" d="M200.84,382.18v.32a2.36,2.36,0,0,1-1.63-.61C199.81,381.65,200.31,382,200.84,382.18Z" transform="translate(-84.93 -263.93)"/><path class="cls-45" d="M182.39,376.84l.59-.25c.32.09.79,0,.56.62C183.13,377.17,182.69,377.23,182.39,376.84Z" transform="translate(-84.93 -263.93)"/><path d="M571.68,314.26c0-.26,0-.52.2-.71l.12.83,0,1.15C571,315.31,571.45,314.76,571.68,314.26Z" transform="translate(-84.93 -263.93)"/><path class="cls-46" d="M217.64,387.5c.4-.06.81-.15,1.11.24,0,.19-.19.22-.31.31C218,388.09,217.58,388.17,217.64,387.5Z" transform="translate(-84.93 -263.93)"/><path class="cls-10" d="M105.5,352.79l.35-.27a1.88,1.88,0,0,1,1.11.34q0,.14,0,.28Z" transform="translate(-84.93 -263.93)"/><path class="cls-47" d="M227,390.38l-.33.34-1.14-.4.63-.25Z" transform="translate(-84.93 -263.93)"/><path class="cls-48" d="M176.49,374.55v.36a3.07,3.07,0,0,1-1.79-.66C175.35,373.95,175.89,374.42,176.49,374.55Z" transform="translate(-84.93 -263.93)"/><path class="cls-29" d="M171.79,373.09v.36a3.11,3.11,0,0,1-1.79-.66C170.66,372.44,171.19,373,171.79,373.09Z" transform="translate(-84.93 -263.93)"/><path class="cls-49" d="M96.08,349.41l-.34.25a1.47,1.47,0,0,1-1.11-.39v-.19C95.17,348.95,95.59,349.33,96.08,349.41Z" transform="translate(-84.93 -263.93)"/><path class="cls-21" d="M129,360.13l.36-.28c.32,0,.67,0,.87.33C129.77,360.63,129.38,360.17,129,360.13Z" transform="translate(-84.93 -263.93)"/><path class="cls-38" d="M87.3,346.7l0,.32c-.44,0-.88,0-1.14-.48C86.6,346.13,86.92,346.62,87.3,346.7Z" transform="translate(-84.93 -263.93)"/><path d="M571.41,312.33l0,.85c-.66.09-.55-.44-.65-.81a1.18,1.18,0,0,1,.38-.91C571.6,311.61,571.34,312,571.41,312.33Z" transform="translate(-84.93 -263.93)"/><path d="M571.11,311.46l0,.75c-.55,0-.59-.14-.29-.88,0-.26,0-.52.19-.71Z" transform="translate(-84.93 -263.93)"/><path class="cls-10" d="M119.58,357.19l.35-.27c.33,0,.68,0,.9.33C120.38,357.87,120,357.11,119.58,357.19Z" transform="translate(-84.93 -263.93)"/><path class="cls-14" d="M187.65,378c.52-.09.79.24,1,.63-.34-.14-.79.15-1-.28Q187.39,378.2,187.65,378Z" transform="translate(-84.93 -263.93)"/><path d="M572.49,378.49a1,1,0,0,0,.08.21l-.1,1.42A1.57,1.57,0,0,1,572.49,378.49Z" transform="translate(-84.93 -263.93)"/><path class="cls-10" d="M114.89,355.73l.35-.27c.33,0,.68,0,.89.33C115.69,356.4,115.3,355.64,114.89,355.73Z" transform="translate(-84.93 -263.93)"/><path class="cls-50" d="M220.5,388.32v.34a1.82,1.82,0,0,1-1.17-.35.2.2,0,0,1-.06-.21q0-.1.08-.1A2.1,2.1,0,0,1,220.5,388.32Z" transform="translate(-84.93 -263.93)"/><path class="cls-51" d="M133.66,361.6l.37-.28c.32,0,.68,0,.87.33C134.47,362.09,134.07,361.64,133.66,361.6Z" transform="translate(-84.93 -263.93)"/><path class="cls-23" d="M124.27,358.66l.36-.28c.33,0,.68,0,.89.33C125.08,359.33,124.7,358.58,124.27,358.66Z" transform="translate(-84.93 -263.93)"/><path class="cls-10" d="M110.19,354.26l.35-.27c.33,0,.67,0,.89.32C111,354.93,110.61,354.17,110.19,354.26Z" transform="translate(-84.93 -263.93)"/><path class="cls-52" d="M94.63,349.08q0,.09,0,.19c-.53.11-1-.25-1.44-.33l.35-.25A1.45,1.45,0,0,1,94.63,349.08Z" transform="translate(-84.93 -263.93)"/><path class="cls-53" d="M204.66,383.35c-.23.08-.54,0-.63.34-.32-.08-.57-.22-.52-.62C203.92,383.05,204.34,383,204.66,383.35Z" transform="translate(-84.93 -263.93)"/><path class="cls-54" d="M88.5,347.47l.35-.25.79,0v.64Z" transform="translate(-84.93 -263.93)"/><path class="cls-45" d="M187.65,378l0,.35c-.32,0-.67,0-.87-.33q0-.12,0-.25Z" transform="translate(-84.93 -263.93)"/><path class="cls-45" d="M191.45,379.53q0-.12,0-.25c.39.05.87,0,.92.57C192,379.85,191.68,379.88,191.45,379.53Z" transform="translate(-84.93 -263.93)"/><path d="M572.17,381.87a1.11,1.11,0,0,1,.1-1.44Z" transform="translate(-84.93 -263.93)"/><path class="cls-37" d="M219.34,388l0,.31c-.34.07-.6-.14-.87-.28l.31-.31Z" transform="translate(-84.93 -263.93)"/><path class="cls-34" d="M216.12,387.39l.37-.29c.39-.16.48.31.76.37C216.83,387.89,216.49,387.37,216.12,387.39Z" transform="translate(-84.93 -263.93)"/><path class="cls-55" d="M276.83,391.52l-.05-.71a4.38,4.38,0,0,1,.16-3.12,57.85,57.85,0,0,0,3.73-17.53,14.82,14.82,0,0,1,.58-4.89c.07-.18.06,0,0-.14-.51-2.86.82-5.66.24-8.56a10.37,10.37,0,0,1,.25-4.93,8.6,8.6,0,0,0,0-4.64,16,16,0,0,1-.25-6,8.47,8.47,0,0,0-.25-4.19,1.4,1.4,0,0,1-.15-.86c.56-2-.2-4-.25-5.93a38.71,38.71,0,0,0-.75-6.2c-.14-.73-.18-1.45-.25-2.18a38.27,38.27,0,0,0-3.15-12.12,4.09,4.09,0,0,1,0-2.59,1.67,1.67,0,0,1,.14-.47,1.14,1.14,0,0,1,.35-.35h47.34l.14.33a3,3,0,0,1,.27.43c.87,3,1,6.13,1.48,9.2.27,1.78-.18,3.61.54,5.34a2.89,2.89,0,0,1,0,1.6,3.75,3.75,0,0,0-.08,1.89c.65,1.73.32,3.46.24,5.21a8.73,8.73,0,0,0,.39,3.47,5.19,5.19,0,0,1,.1,2.47c-.42,3.41-.12,6.83-.19,10.25a1.24,1.24,0,0,0,.22.69,1.46,1.46,0,0,1,.15.69,4,4,0,0,0-.06,1.58,3.21,3.21,0,0,1,.07,1.43,99.31,99.31,0,0,0-.15,16.38,4.78,4.78,0,0,1-.12,2,8.68,8.68,0,0,0-.29,4.2,4.61,4.61,0,0,1-.19,2.31,2.3,2.3,0,0,0-.18,1c.35,3.79-.65,7.44-1.11,11.14-.13,1,.08,2.16-.79,3l0,.73-38.42,0C283.28,391.57,280.06,391.54,276.83,391.52Z" transform="translate(-84.93 -263.93)"/><path class="cls-56" d="M277.06,306.47a.25.25,0,0,1,0,.23c-.69.77-1.63.55-2.48.55q-20.93,0-41.87,0c-.49,0-1,0-1.46,0-1-.08-1.68.31-1.79,1.41a.33.33,0,0,1-.46.18l-1-1.78.75-.87a3,3,0,0,0,1.58.14h45.17A4,4,0,0,1,277.06,306.47Z" transform="translate(-84.93 -263.93)"/><path d="M277.06,306.47h-47c-.47,0-1,.17-1.38-.26a9.1,9.1,0,0,1,1-.11h46.61c.29,0,.58,0,.87.07Z" transform="translate(-84.93 -263.93)"/><path class="cls-57" d="M145.66,283.67a4.34,4.34,0,0,1-2-.6q-.14-.1-.08-.19c0-.06.07-.08.1-.08l2.06.6q.11.11.06.19T145.66,283.67Z" transform="translate(-84.93 -263.93)"/><path class="cls-58" d="M97.57,270.07l-2.21-.58c.83-.59,1.49.13,2.22.3q.15.1.09.19C97.64,270,97.6,270.07,97.57,270.07Z" transform="translate(-84.93 -263.93)"/><path class="cls-59" d="M97.57,270.07q0-.14,0-.28a5.43,5.43,0,0,1,2.06.58q.15.1.09.19c0,.06-.07.09-.11.09Z" transform="translate(-84.93 -263.93)"/><path class="cls-60" d="M99.62,270.65q0-.14,0-.28a5.08,5.08,0,0,1,2.05.59q.15.1.09.19c0,.06-.07.09-.1.09Z" transform="translate(-84.93 -263.93)"/><path class="cls-61" d="M101.68,271.24q0-.14,0-.28a5.32,5.32,0,0,1,2.05.59q.15.1.09.19c0,.06-.07.09-.1.09Z" transform="translate(-84.93 -263.93)"/><path class="cls-59" d="M103.73,271.83q0-.14,0-.28a5.14,5.14,0,0,1,2.05.59q.15.1.09.19c0,.06-.07.09-.1.09Z" transform="translate(-84.93 -263.93)"/><path class="cls-62" d="M105.78,272.41q0-.14,0-.28a6.25,6.25,0,0,1,2.07.56q.13.12.08.21t-.11.09Z" transform="translate(-84.93 -263.93)"/><path class="cls-63" d="M134.84,280.59l-2.1-.54A1.81,1.81,0,0,1,134.84,280.59Z" transform="translate(-84.93 -263.93)"/><path class="cls-64" d="M143.63,282.79q0,.14,0,.27a5.08,5.08,0,0,1-2.07-.59C142.28,282.27,142.93,282.7,143.63,282.79Z" transform="translate(-84.93 -263.93)"/><path class="cls-65" d="M141,282.34a3.51,3.51,0,0,1-1.75-.52A1.47,1.47,0,0,1,141,282.34Z" transform="translate(-84.93 -263.93)"/><path class="cls-66" d="M138.95,281.76a3.49,3.49,0,0,1-1.76-.52A1.47,1.47,0,0,1,138.95,281.76Z" transform="translate(-84.93 -263.93)"/><path class="cls-67" d="M136.9,281.17a3.47,3.47,0,0,1-1.76-.52A1.48,1.48,0,0,1,136.9,281.17Z" transform="translate(-84.93 -263.93)"/><path class="cls-68" d="M117.31,275.65c-.58-.16-1.24-.07-1.71-.55C116.27,275,116.93,274.89,117.31,275.65Z" transform="translate(-84.93 -263.93)"/><path class="cls-69" d="M155.3,286.48c-.47-.23-1.07-.09-1.46-.53C154.41,285.89,155,285.67,155.3,286.48Z" transform="translate(-84.93 -263.93)"/><path class="cls-70" d="M145.66,283.67q0-.14,0-.28c.48.26,1.16.07,1.46.7A2.88,2.88,0,0,1,145.66,283.67Z" transform="translate(-84.93 -263.93)"/><path class="cls-71" d="M191.45,296.69a2.68,2.68,0,0,1-1.62-.48A1.72,1.72,0,0,1,191.45,296.69Z" transform="translate(-84.93 -263.93)"/><path class="cls-72" d="M187.34,295.52a2.71,2.71,0,0,1-1.62-.48A1.72,1.72,0,0,1,187.34,295.52Z" transform="translate(-84.93 -263.93)"/><path class="cls-73" d="M111.16,273.89l-1.43-.29C110.33,273.08,110.79,273.25,111.16,273.89Z" transform="translate(-84.93 -263.93)"/><path class="cls-74" d="M179.13,293.18a2.72,2.72,0,0,1-1.62-.49A1.67,1.67,0,0,1,179.13,293.18Z" transform="translate(-84.93 -263.93)"/><path class="cls-75" d="M177.08,292.61a2.69,2.69,0,0,1-1.6-.47A1.45,1.45,0,0,1,177.08,292.61Z" transform="translate(-84.93 -263.93)"/><path class="cls-76" d="M175,292a2.69,2.69,0,0,1-1.6-.48C174,291.46,174.62,291.43,175,292Z" transform="translate(-84.93 -263.93)"/><path class="cls-77" d="M107.84,273l0-.31c.48.06,1,0,1.23.6Z" transform="translate(-84.93 -263.93)"/><path class="cls-78" d="M173,291.44c-.52-.08-1.09,0-1.49-.49C172.06,290.89,172.61,290.88,173,291.44Z" transform="translate(-84.93 -263.93)"/><path class="cls-79" d="M171.5,291a2,2,0,0,1-1.46-.35C170.64,290.29,171.08,290.6,171.5,291Z" transform="translate(-84.93 -263.93)"/><path class="cls-80" d="M161.24,288.16c-.48-.17-1-.12-1.44-.49A1,1,0,0,1,161.24,288.16Z" transform="translate(-84.93 -263.93)"/><path class="cls-81" d="M163.29,288.61a1.85,1.85,0,0,1-1.44-.35A1.2,1.2,0,0,1,163.29,288.61Z" transform="translate(-84.93 -263.93)"/><path class="cls-82" d="M159.19,287.58c-.48-.17-1-.11-1.43-.49A1,1,0,0,1,159.19,287.58Z" transform="translate(-84.93 -263.93)"/><path class="cls-83" d="M149.12,284.47a1.4,1.4,0,0,1-1.44-.23C148.18,284.25,148.72,284,149.12,284.47Z" transform="translate(-84.93 -263.93)"/><path class="cls-68" d="M119.3,276.17l-1.35-.21C118.48,275.51,118.94,275.49,119.3,276.17Z" transform="translate(-84.93 -263.93)"/><path class="cls-84" d="M115.27,275.06l-1.43-.29C114.44,274.24,114.9,274.43,115.27,275.06Z" transform="translate(-84.93 -263.93)"/><path class="cls-85" d="M113.21,274.48l-1.42-.28C112.38,273.66,112.84,273.84,113.21,274.48Z" transform="translate(-84.93 -263.93)"/><path class="cls-86" d="M185,294.95c-.44-.21-1-.05-1.36-.49C184.18,294.45,184.75,294.29,185,294.95Z" transform="translate(-84.93 -263.93)"/><path class="cls-87" d="M183,294.36c-.44-.21-1,0-1.36-.49C182.13,293.86,182.7,293.7,183,294.36Z" transform="translate(-84.93 -263.93)"/><path class="cls-88" d="M180.92,293.77c-.43-.21-1,0-1.35-.49C180.08,293.28,180.65,293.12,180.92,293.77Z" transform="translate(-84.93 -263.93)"/><path class="cls-89" d="M168.62,290.26c-.42-.22-1,0-1.32-.48C167.8,289.76,168.35,289.6,168.62,290.26Z" transform="translate(-84.93 -263.93)"/><path class="cls-90" d="M166.56,289.67c-.42-.22-1,0-1.33-.48C165.75,289.17,166.3,289,166.56,289.67Z" transform="translate(-84.93 -263.93)"/><path class="cls-91" d="M164.51,289.09c-.38-.24-1,0-1.24-.49C163.75,288.6,164.29,288.46,164.51,289.09Z" transform="translate(-84.93 -263.93)"/><path class="cls-92" d="M224.91,306.35c-.38-.19-.9,0-1.2-.45C224.21,305.78,224.7,305.7,224.91,306.35Z" transform="translate(-84.93 -263.93)"/><path class="cls-92" d="M222.86,305.77c-.38-.2-.9,0-1.19-.45C222.16,305.2,222.65,305.11,222.86,305.77Z" transform="translate(-84.93 -263.93)"/><path class="cls-92" d="M220.8,305.17c-.39-.17-.89,0-1.19-.43C220.1,304.61,220.58,304.53,220.8,305.17Z" transform="translate(-84.93 -263.93)"/><path class="cls-93" d="M218.74,304.58c-.38-.18-.89,0-1.19-.43C218,304,218.53,303.94,218.74,304.58Z" transform="translate(-84.93 -263.93)"/><path class="cls-94" d="M227,306.94c-.39-.19-.9,0-1.2-.45C226.26,306.37,226.75,306.28,227,306.94Z" transform="translate(-84.93 -263.93)"/><path class="cls-95" d="M216.69,304c-.38-.18-.89,0-1.19-.44C216,303.43,216.48,303.35,216.69,304Z" transform="translate(-84.93 -263.93)"/><path class="cls-96" d="M230.28,374c.34-2.42.29-4.87.39-7.3.17-4.53.37-9.07.42-13.62.07-6.3.38-12.59.11-18.89-.15-3.36-.22-6.73-.33-10.1a14.83,14.83,0,0,0-.12-4l-.19-.65c.21-1-.11-2,.18-2.93a.44.44,0,0,1,.47.17,10.07,10.07,0,0,1,.52,3.45c.14,1.85.27,3.7.35,5.55.33,7.51.48,15,.29,22.54-.19,7.26-.33,14.52-.79,21.78-.27,4.33-.47,8.67-.92,13-.06.57,0,1.19-.53,1.62-.8-.13-.3-.73-.37-1.1s0-1-.08-1.53l.19-.62a8.08,8.08,0,0,0,.11-2.9l.18-.64A13.05,13.05,0,0,0,230.28,374Z" transform="translate(-84.93 -263.93)"/><path d="M229.68,381.9c.39.83.1,1.72.19,2.57.46.78.81,1.54-.29,2.11l0,0c-.21-.55,0-1.14-.15-1.7Z" transform="translate(-84.93 -263.93)"/><path d="M230.46,316.78a5,5,0,0,1-.29-2.66.55.55,0,0,1,.5-.08,1.78,1.78,0,0,1,.08,2.42l-.07.08A.4.4,0,0,1,230.46,316.78Z" transform="translate(-84.93 -263.93)"/><path d="M230.4,314.13h-.23v0c-.34-.54.05-1.19-.26-1.73-.48-.4-.37-.94-.32-1.46a.53.53,0,0,1,.49-.09A2.58,2.58,0,0,1,230.4,314.13Z" transform="translate(-84.93 -263.93)"/><path d="M230.74,320a7,7,0,0,1,.12,4Z" transform="translate(-84.93 -263.93)"/><path d="M230.28,374a11.92,11.92,0,0,1,.11,3.77s-.07.05-.11,0a.4.4,0,0,1-.13-.06A21.9,21.9,0,0,1,230.28,374Z" transform="translate(-84.93 -263.93)"/><path d="M230,378.38a7.12,7.12,0,0,1,.13,2.89s-.07.06-.11.06a.38.38,0,0,1-.13-.05A12.84,12.84,0,0,1,230,378.38Z" transform="translate(-84.93 -263.93)"/><path d="M230.46,316.78l.22-.23a6.47,6.47,0,0,1-.13,2.83Z" transform="translate(-84.93 -263.93)"/><path d="M229.82,310.9h-.22c-.49-.3-.32-.76-.27-1.19a.52.52,0,0,1,.47-.07A.75.75,0,0,1,229.82,310.9Z" transform="translate(-84.93 -263.93)"/><path d="M229.92,312.37c.48.52.18,1.16.26,1.74C229.64,313.59,229.88,313,229.92,312.37Z" transform="translate(-84.93 -263.93)"/><path d="M229.38,384.83c.36.54.18,1.13.15,1.7l-.13,0h-.13Z" transform="translate(-84.93 -263.93)"/><path d="M229.52,309.73h-.2c-.37-.2-.39-.52-.31-.87h.24C230,309,229.85,309.31,229.52,309.73Z" transform="translate(-84.93 -263.93)"/><path class="cls-2" d="M327.57,347.24c-.64.09-.57-.37-.55-.75.16-3.54-.3-7.09.24-10.63.13-.87.43-1.92-.45-2.74-.2-.19,0-.75-.1-1.14-.39-2.22.66-4.41-.19-6.72-.57-1.55-.14-3.44-.21-5.15s-.63-3.32-.3-5.08c.15-.82-.63-2-.51-3,.21-1.84-1-3.42-.81-5.25a3.14,3.14,0,0,1,1.58-.14H568.09c.8,0,1.73-.24,1.81,1,.3.39-.13,1,.31,1.31.26.46-.13,1,.29,1.47.19.26-.06.67.29.88.19.26-.06.67.29.88.19.3-.05.72.3,1s-.11.8.29,1.08c.23.39-.1.91.3,1.26s-.15,1,.29,1.38c.26.49-.13,1.1.3,1.56.27.63-.15,1.36.29,2s-.17,1.48.3,2.14c.3.86-.18,1.8.29,2.64.31,1.08-.19,2.22.28,3.28.32,1.55-.24,3.16.32,4.69a1.29,1.29,0,0,1,.11.57q0,11.69,0,23.39a1.19,1.19,0,0,1-.14.7h0a2.82,2.82,0,0,0-.14,1.56c0,3.8-.49,7.57-.72,11.35h0c-.41.94.07,2-.29,2.92-.51.73,0,1.59-.3,2.35-.59,3.16-.92,6.36-1.68,9.49-.13.54-.49,1.07-.22,1.67a4.5,4.5,0,0,0-.94,2.77c0,.64-.26.87-.88.83-.44,0-.88,0-1.32,0H327l-2.05,0a55.78,55.78,0,0,1,1-7.46c.25-1-.07-2,.26-2.62,1-1.92-.56-4,.7-5.89.37-.55,0-1.68-.22-2.52-.35-1.67.8-3.16.58-4.77-.56-4-.23-8.06-.22-12.09a15.52,15.52,0,0,1,.5-4.92,2.82,2.82,0,0,1,.67,1.59,8.64,8.64,0,0,0,9.39,6.73c4.94-.28,8-3.34,8.66-8.15a12.65,12.65,0,0,0-.95-7.27,8.31,8.31,0,0,0-8.5-4.79c-4.54.29-7.48,2.72-8.49,6.62C328.17,345.94,328.21,346.73,327.57,347.24Z" transform="translate(-84.93 -263.93)"/><path class="cls-97" d="M569.91,307.67c-.33-.6-.71-1.11-1.52-.89a1.72,1.72,0,0,1-.44,0H324.69v-.3H567.63a8.83,8.83,0,0,0,1.17,0C569.76,306.36,570,306.82,569.91,307.67Z" transform="translate(-84.93 -263.93)"/><path class="cls-2" d="M229.52,309.73c-.11-.29.1-.67-.27-.88a3,3,0,0,0-.05-.44c-.45-1.71-.46-1.71,1.37-1.71h46.49c-.54,3.2,1.71,5.7,2.19,8.65.3,1.82.7,3.62.93,5.46.11.91-.5,2.21.62,3,.24.17.06.6-.08.94s-.33,1,.11,1.34.37.77.2,1.24a1.41,1.41,0,0,0,.2,1.62c.07.07.19.17.17.23-.61,1.81.58,3.52.31,5.29a4.1,4.1,0,0,0,.23,2.81,6.53,6.53,0,0,1,.12,3.46,16.33,16.33,0,0,0,.18,6.06,9.65,9.65,0,0,1-.26,5.54,9.81,9.81,0,0,0-.12,4.34c.2,1.67.58,3.27-.28,4.9a2.94,2.94,0,0,0,0,1.71c.19,1,.54,2-.29,2.84-.06.06-.12.21-.08.26.83,1.55-.41,3-.14,4.64s-.32,3.35-.54,5c-.38,2.88-1.52,5.6-1.85,8.5a9.23,9.23,0,0,1-1.06,2.44,10,10,0,0,0-.85,3.79H230.61c-1.83,0-1.82,0-1.43-1.81.17-.8.27-1.61.4-2.41.45-.65,0-1.43.29-2.11a9.4,9.4,0,0,0,.43-3.24c.38-3.61.42-7.26.67-10.88.4-5.73.36-11.47.65-17.19.35-6.84.24-13.66.15-20.49-.06-4.11-.24-8.25-.53-12.36-.09-1.28-.32-2.56-.49-3.83-.33-.75.22-1.63-.35-2.34a7.22,7.22,0,0,0-.58-3.23C229.66,310.53,230,310,229.52,309.73Z" transform="translate(-84.93 -263.93)"/><path class="cls-98" d="M574,357.84q0-12.33,0-24.66l.2,0q0,12,.06,24C574.3,357.41,574.12,357.62,574,357.84Z" transform="translate(-84.93 -263.93)"/><path class="cls-98" d="M573.16,370.75c.07-4.1.77-8.16.64-12.26,0-.24,0-.49.22-.65.19,4.16-.46,8.27-.61,12.42C573.4,370.42,573.24,370.58,573.16,370.75Z" transform="translate(-84.93 -263.93)"/><path class="cls-98" d="M572.86,373.68c.22-1-.21-2,.29-2.92C573,371.73,573.44,372.75,572.86,373.68Z" transform="translate(-84.93 -263.93)"/><path class="cls-55" d="M327.57,347.24c.62-4.62,3-7.78,6.87-8.68,7.79-1.82,12.93,3.35,12.39,11-.22,3.18-1.24,6-4,8-5.12,3.56-14.29,2-15.28-7a1.89,1.89,0,0,0-.28-1.2c.36-.43-.05-1,.29-1.45Z" transform="translate(-84.93 -263.93)"/><path class="cls-99" d="M327.57,347.87c-.08.49.22,1.05-.29,1.45C327.36,348.84,327.05,348.27,327.57,347.87Z" transform="translate(-84.93 -263.93)"/><path class="cls-55" d="M430.14,348c3.73,1.27,5.15,3.89,3.93,7.21a6.59,6.59,0,0,1-5.88,3.77c-1.81,0-3.62,0-5.42,0-.75,0-1-.19-1-1,0-6.21,0-12.41,0-18.62,0-.5-.07-1,.71-1,2.33.12,4.67-.22,7,.24a4.55,4.55,0,0,1,3.83,3.68,4.68,4.68,0,0,1-2.25,4.91A11.06,11.06,0,0,0,430.14,348Z" transform="translate(-84.93 -263.93)"/><path class="cls-55" d="M543.48,346.34c0-2.87,0-5.38,0-7.9,0-.86.17-1.19,1.11-1.17s1.25.23,1.24,1.22c0,6.35,0,12.7,0,19,0,.74.27,1.51-1.06,1.53s-1.34-.55-1.25-1.47a4.41,4.41,0,0,0-.08-.73c-1.12.76-1.89,1.8-3.13,2.15a5.84,5.84,0,0,1-7.66-4.46,12.24,12.24,0,0,1-.07-4.93C533.33,344.6,539.53,341.95,543.48,346.34Z" transform="translate(-84.93 -263.93)"/><path class="cls-55" d="M474.86,351.19c1.8-2,3.3-3.59,4.78-5.24.89-1,1.74-2,3.29-1.6.22.06.54,0,.65.17.24.32-.12.52-.3.71-1.68,1.77-3.32,3.58-5.07,5.27-.77.74-.66,1.15,0,1.84,2.06,2.06,4,4.2,6.09,6.34-1.86.68-2.78.46-4-.87a63.22,63.22,0,0,0-5.47-5.52c0,1.76-.1,3.52,0,5.27.1,1.3-.38,1.58-1.55,1.47-.63-.06-.83-.23-.82-.86q0-10,0-20.07c0-1.13.75-.74,1.3-.8s1.08,0,1.07.88c0,3.71,0,7.42,0,11.13Z" transform="translate(-84.93 -263.93)"/><path class="cls-55" d="M561.23,356c.52,1.52-.14,2.21-1.45,2.67-3.62,1.26-8.07.68-9.53-3.2s-.66-8.82,3-10.64c2.33-1.15,4.65-1.21,6.73.37s2.4,4,2.31,6.45c0,.83-.65.56-1.07.57-2.69,0-5.38.07-8.06,0-1.16,0-1.29.41-1.09,1.36.72,3.26,4,4.63,7.59,3.14C560.21,356.51,560.72,356.26,561.23,356Z" transform="translate(-84.93 -263.93)"/><path class="cls-55" d="M408.74,356c.14,2.08,0,2.35-2.12,2.93a8.94,8.94,0,0,1-5.32,0c-2.4-.82-3.56-2.64-4.07-5-.85-4,.72-7.86,4-9.26a5.84,5.84,0,0,1,6.44.73c1.94,1.64,2.24,4,2.12,6.39,0,.74-.62.49-1,.49-2.74,0-5.47.07-8.21,0-1.12,0-1.19.43-1,1.29.64,3.26,3.94,4.69,7.54,3.25C407.59,356.55,408.09,356.28,408.74,356Z" transform="translate(-84.93 -263.93)"/><path class="cls-55" d="M437.28,351.74c-.15-6.08,4.8-8.67,9.84-7.33,2.9.77,4.67,3.81,4.53,7.53-.12,3.37-1.85,6-4.66,6.94a7.49,7.49,0,0,1-8-1.86A7.23,7.23,0,0,1,437.28,351.74Z" transform="translate(-84.93 -263.93)"/><path class="cls-55" d="M462,344c4.33,0,7,2.89,7,7.56s-3,7.7-7.33,7.69-7-2.93-7.06-7.53S457.1,344.16,462,344Z" transform="translate(-84.93 -263.93)"/><path class="cls-100" d="M505,349.87c-2,0-3.91.06-5.86,0-.77,0-1,.24-1,1,0,2.44,0,4.89,0,7.33,0,.35.18,1.2-.46.89s-2.27.74-2.29-.9c-.07-6.3,0-12.61,0-18.91,0-.81.4-.83,1-.82,3.08,0,6.15,0,9.23,0a2.56,2.56,0,0,1,0,2c-2.24,0-4.48.07-6.72,0-.89,0-1.19.22-1.15,1.14.07,1.75.06,3.51,0,5.26,0,.78.24,1,1,1,2.09,0,4.19,0,6.28,0A2.59,2.59,0,0,1,505,349.87Z" transform="translate(-84.93 -263.93)"/><path class="cls-55" d="M362.47,359c-2.08.09-2,.09-2.09-2-.06-2.58.27-5.17-.18-7.73-.36-2.08-1.28-3-2.88-3.13a4,4,0,0,0-4.15,2.59,8.72,8.72,0,0,0-.35,3.32c0,2,0,4,0,6,0,.88-.31,1.08-1.1,1s-1.3.14-1.28-1c.07-4.24.06-8.49,0-12.73,0-1,.46-1,1.16-1s1.35-.19,1.2.88a15.41,15.41,0,0,0,0,1.59c2.14-2.55,4.44-3.46,7.18-2.22,1.72.78,2.36,2.35,2.54,4.15A81.64,81.64,0,0,1,362.47,359Z" transform="translate(-84.93 -263.93)"/><path class="cls-55" d="M393.27,359c-2.08.09-2,.09-2.09-2-.06-2.58.27-5.17-.18-7.73-.36-2.08-1.28-3-2.88-3.13a4,4,0,0,0-4.15,2.59,8.72,8.72,0,0,0-.35,3.32c0,2,0,4,0,6,0,.88-.31,1.08-1.1,1s-1.3.14-1.28-1c.07-4.24.06-8.49,0-12.73,0-1,.46-1,1.16-1s1.34-.19,1.21.88a1.44,1.44,0,0,0,.25,1.26c1.87-2.23,4.17-3.14,6.92-1.9,1.72.78,2.36,2.35,2.54,4.15A81.58,81.58,0,0,1,393.27,359Z" transform="translate(-84.93 -263.93)"/><path class="cls-55" d="M528.52,359c-2.08.09-2,.09-2.09-2-.06-2.58.27-5.17-.18-7.73-.36-2.08-1.28-3-2.88-3.13a4,4,0,0,0-4.15,2.59,8.72,8.72,0,0,0-.35,3.32c0,2,0,4,0,6,0,.88-.31,1.08-1.1,1s-1.3.14-1.28-1c.07-4.24.06-8.49,0-12.73,0-1,.46-1,1.16-1s1.35-.19,1.2.88a15.42,15.42,0,0,0,0,1.59c2.14-2.55,4.44-3.46,7.18-2.22,1.72.78,2.36,2.35,2.54,4.15A81.58,81.58,0,0,1,528.52,359Z" transform="translate(-84.93 -263.93)"/><path class="cls-55" d="M369.53,348.15c0,3.27,0,6.55,0,9.82,0,.85-.26,1.12-1.08,1-.66-.06-1.31.17-1.3-1q.08-9.89,0-19.79c0-1.15.65-.9,1.31-1,.82-.08,1.08.2,1.07,1C369.51,341.61,369.53,344.88,369.53,348.15Z" transform="translate(-84.93 -263.93)"/><path class="cls-100" d="M568.41,346.39c.75-.68,1.26-1.65,2.29-2.05,2.11-.83,2.82-.34,2.65,2a3.4,3.4,0,0,0-3.5.39,5.23,5.23,0,0,0-1.68,4.05c-.06,2.39-.06,4.78,0,7.18,0,.89-.32,1.07-1.1,1s-1.3.13-1.28-1c.07-4.15,0-8.3,0-12.45,0-.89.13-1.29,1.17-1.27s1.34.25,1.2,1.22A.75.75,0,0,0,568.41,346.39Z" transform="translate(-84.93 -263.93)"/><path class="cls-101" d="M374.23,351.55c0-2.05.06-4.11,0-6.16,0-1,.43-1.06,1.21-1.07s1.2.13,1.18,1.1c-.06,4.2-.07,8.41,0,12.61,0,1.14-.62.93-1.29,1s-1.13-.13-1.11-1C374.27,355.85,374.23,353.7,374.23,351.55Z" transform="translate(-84.93 -263.93)"/><path class="cls-101" d="M511.82,351.68c0,2.09-.06,4.19,0,6.28,0,1-.42,1.06-1.21,1.07s-1.2-.11-1.19-1.09q.09-6.28,0-12.56c0-1,.42-1.06,1.21-1.07s1.23.1,1.19,1.09C511.76,347.49,511.82,349.59,511.82,351.68Z" transform="translate(-84.93 -263.93)"/><path class="cls-102" d="M376.93,339a1.33,1.33,0,0,1-1.44,1.48,1.36,1.36,0,0,1-1.51-1.42,1.38,1.38,0,0,1,1.48-1.46A1.32,1.32,0,0,1,376.93,339Z" transform="translate(-84.93 -263.93)"/><path class="cls-103" d="M512.17,339.08a1.33,1.33,0,0,1-1.47,1.42,1.36,1.36,0,0,1-1.48-1.45,1.39,1.39,0,0,1,1.51-1.43A1.33,1.33,0,0,1,512.17,339.08Z" transform="translate(-84.93 -263.93)"/><path class="cls-104" d="M362.47,359l.07-10.24c.54,2.63.15,5.29.22,7.93C362.78,357.41,363.13,358.27,362.47,359Z" transform="translate(-84.93 -263.93)"/><path class="cls-104" d="M393.27,359l.07-10.24c.54,2.63.15,5.29.22,7.93C393.58,357.41,393.93,358.27,393.27,359Z" transform="translate(-84.93 -263.93)"/><path class="cls-104" d="M528.52,359l.07-10.24c.54,2.63.15,5.29.22,7.93C528.83,357.41,529.18,358.27,528.52,359Z" transform="translate(-84.93 -263.93)"/><path class="cls-105" d="M505.63,340.48q0-1,0-2A1.43,1.43,0,0,1,505.63,340.48Z" transform="translate(-84.93 -263.93)"/><path class="cls-106" d="M505,349.87q0-1,0-2A1.45,1.45,0,0,1,505,349.87Z" transform="translate(-84.93 -263.93)"/><path class="cls-2" d="M344.29,348.78c.13,2.69-.42,5.2-2.6,7a7,7,0,0,1-10.88-2.65,10.58,10.58,0,0,1-.14-8.38,7,7,0,0,1,8-4.44c3.14.53,5.37,3.19,5.62,6.74C344.33,347.61,344.29,348.19,344.29,348.78Z" transform="translate(-84.93 -263.93)"/><path class="cls-107" d="M424.15,353.13a4,4,0,0,1,0-.73c.19-1-.58-2.31.38-3,1.16-.83,5.55.12,6.5,1.14a3.91,3.91,0,0,1,.61,4.22,4,4,0,0,1-2.79,2.11,2.51,2.51,0,0,1-.43.06C424.15,357.41,424.15,357.41,424.15,353.13Z" transform="translate(-84.93 -263.93)"/><path class="cls-108" d="M426.45,340.52h.88c2.25,0,3.46,1,3.56,2.8a3.55,3.55,0,0,1-3.38,3.94c-3.36.34-3.36.34-3.36-3v-1.47C424.15,340.52,424.15,340.52,426.45,340.52Z" transform="translate(-84.93 -263.93)"/><path class="cls-2" d="M543.54,351.49a17.26,17.26,0,0,1-.22,2.17,4.24,4.24,0,0,1-4.44,3.6,4.15,4.15,0,0,1-4.1-3.8,8.89,8.89,0,0,1,.2-4,4.38,4.38,0,0,1,5-3.29c2.06.25,3.49,2.08,3.51,4.5,0,.29,0,.58,0,.88Z" transform="translate(-84.93 -263.93)"/><path class="cls-108" d="M556,350.21c-1,0-2-.06-2.93,0s-1.08-.34-.75-1.17c1-2.47,3.37-3.65,5.59-2.68a3,3,0,0,1,1.5,1.32c1.08,1.94.78,2.52-1.36,2.52Z" transform="translate(-84.93 -263.93)"/><path class="cls-108" d="M403.43,350.21h-3.22c-.4,0-.76,0-.69-.59a4.3,4.3,0,0,1,6.42-2.91,2.62,2.62,0,0,1,.72.71c.47.75,1,1.65.64,2.46s-1.29.24-2,.31A17.11,17.11,0,0,1,403.43,350.21Z" transform="translate(-84.93 -263.93)"/><path class="cls-2" d="M439.63,351.71c-.18-5.17,4.31-6.64,7.27-5.06,1.85,1,2.8,3.63,2.33,6.32-.53,3.06-2.34,4.49-5.4,4.27C441.29,357.06,439.63,354.88,439.63,351.71Z" transform="translate(-84.93 -263.93)"/><path class="cls-2" d="M456.94,351.69c-.17-5.17,4.32-6.63,7.29-5,1.84,1,2.78,3.65,2.32,6.33-.54,3.06-2.35,4.49-5.41,4.26C458.59,357.05,456.93,354.87,456.94,351.69Z" transform="translate(-84.93 -263.93)"/><path class="cls-55" d="M374.52,351.68c0-2,0-4,0-6,0-.71.14-1.08,1-1.06s.81.48.81,1.05c0,4,0,8,0,12,0,.71-.14,1.08-1,1.06s-.81-.48-.81-1.05C374.52,355.68,374.52,353.68,374.52,351.68Z" transform="translate(-84.93 -263.93)"/><path class="cls-55" d="M511.53,351.71q0,2.93,0,5.86c0,.59.09,1.16-.84,1.17s-.93-.42-.93-1.09q0-6,0-12c0-.61.07-1,.85-1s.94.42.93,1.09C511.51,347.7,511.53,349.71,511.53,351.71Z" transform="translate(-84.93 -263.93)"/></svg>